%TF.GenerationSoftware,KiCad,Pcbnew,8.0.0*%
%TF.CreationDate,2024-10-16T16:52:34+02:00*%
%TF.ProjectId,LucaudioESP32_V1_1_0,4c756361-7564-4696-9f45-535033325f56,rev?*%
%TF.SameCoordinates,Original*%
%TF.FileFunction,Profile,NP*%
%FSLAX46Y46*%
G04 Gerber Fmt 4.6, Leading zero omitted, Abs format (unit mm)*
G04 Created by KiCad (PCBNEW 8.0.0) date 2024-10-16 16:52:34*
%MOMM*%
%LPD*%
G01*
G04 APERTURE LIST*
%TA.AperFunction,Profile*%
%ADD10C,0.050000*%
%TD*%
G04 APERTURE END LIST*
D10*
X103500000Y-66000000D02*
X106500000Y-66000000D01*
X103500000Y-136000000D02*
G75*
G02*
X102500000Y-135000000I0J1000000D01*
G01*
X102500000Y-89750000D02*
X102500000Y-67000000D01*
X102500000Y-102250000D02*
X102500000Y-135000000D01*
X128500000Y-66000000D02*
X165500000Y-66000000D01*
X102500000Y-67000000D02*
G75*
G02*
X103500000Y-66000000I1000000J0D01*
G01*
X108500000Y-77239693D02*
X126500000Y-77239693D01*
X106500000Y-66000000D02*
G75*
G02*
X107500000Y-67000000I0J-1000000D01*
G01*
X107500000Y-67000000D02*
X107500000Y-76239694D01*
X165500000Y-136000000D02*
X103500000Y-136000000D01*
X108500000Y-77239694D02*
G75*
G02*
X107500006Y-76239694I0J999994D01*
G01*
X127500000Y-67000000D02*
G75*
G02*
X128500000Y-66000000I1000000J0D01*
G01*
X127500000Y-76239693D02*
X127500000Y-67000000D01*
X127500000Y-76239693D02*
G75*
G02*
X126500000Y-77239700I-1000000J-7D01*
G01*
X165500000Y-66000000D02*
G75*
G02*
X166500000Y-67000000I0J-1000000D01*
G01*
X102500000Y-89750000D02*
X102500000Y-102250000D01*
X166500000Y-135000000D02*
G75*
G02*
X165500000Y-136000000I-1000000J0D01*
G01*
X166500000Y-67000000D02*
X166500000Y-135000000D01*
%TO.C,J2*%
X158500000Y-96750000D02*
X162000000Y-96750000D01*
X162000000Y-94250000D01*
X158500000Y-94250000D01*
X158500000Y-96750000D01*
X158500000Y-120250000D02*
X162000000Y-120250000D01*
X162000000Y-117750000D01*
X158500000Y-117750000D01*
X158500000Y-120250000D01*
%TD*%
M02*
