M48
; DRILL file {KiCad 8.0.0} date 2024-10-16T16:52:37+0200
; FORMAT={-:-/ absolute / inch / decimal}
; #@! TF.CreationDate,2024-10-16T16:52:37+02:00
; #@! TF.GenerationSoftware,Kicad,Pcbnew,8.0.0
; #@! TF.FileFunction,Plated,1,2,PTH
FMAT,2
INCH
; #@! TA.AperFunction,Plated,PTH,ViaDrill
T1C0.0118
; #@! TA.AperFunction,Plated,PTH,ComponentDrill
T2C0.0236
; #@! TA.AperFunction,Plated,PTH,ComponentDrill
T3C0.0335
; #@! TA.AperFunction,Plated,PTH,ComponentDrill
T4C0.0394
; #@! TA.AperFunction,Plated,PTH,ComponentDrill
T5C0.0630
; #@! TA.AperFunction,Plated,PTH,ComponentDrill
T6C0.0866
%
G90
G05
T1
X4.1004Y-3.6908
X4.114Y-2.958
X4.1339Y-2.8248
X4.1339Y-4.7244
X4.1448Y-3.4156
X4.1544Y-3.8089
X4.1634Y-4.0137
X4.187Y-4.1239
X4.187Y-4.2341
X4.2148Y-3.5006
X4.2357Y-4.3993
X4.2507Y-4.5393
X4.2857Y-4.3993
X4.3366Y-3.8056
X4.3366Y-3.9507
X4.3398Y-3.7206
X4.3406Y-3.5235
X4.3434Y-3.8556
X4.3524Y-3.3759
X4.3537Y-5.1993
X4.359Y-3.227
X4.3607Y-4.2693
X4.3701Y-3.1004
X4.3807Y-4.8693
X4.3996Y-3.6514
X4.3996Y-4.0451
X4.4222Y-3.5727
X4.4222Y-3.7144
X4.4222Y-3.805
X4.439Y-4.2577
X4.4998Y-3.9806
X4.5148Y-3.2106
X4.5846Y-3.1043
X4.6057Y-4.5243
X4.6298Y-3.7206
X4.63Y-3.565
X4.6657Y-4.3593
X4.7707Y-5.2843
X4.789Y-3.286
X4.794Y-3.106
X4.8048Y-4.0156
X4.8207Y-4.2593
X4.8457Y-4.7143
X4.8457Y-4.8993
X4.8583Y-3.9507
X4.8837Y-3.775
X4.9Y-3.496
X4.9114Y-3.9507
X5.0217Y-4.1647
X5.0295Y-4.0215
X5.041Y-3.18
X5.043Y-3.2786
X5.0539Y-4.1718
X5.0621Y-3.999
X5.068Y-2.78
X5.0689Y-2.8837
X5.0689Y-3.053
X5.07Y-2.65
X5.0768Y-4.2892
X5.096Y-3.243
X5.0998Y-5.2856
X5.1004Y-3.4546
X5.1083Y-3.9113
X5.1144Y-4.8277
X5.115Y-3.126
X5.144Y-3.992
X5.1457Y-4.1043
X5.15Y-3.257
X5.16Y-3.568
X5.1638Y-3.0691
X5.1694Y-3.1806
X5.2224Y-3.189
X5.3307Y-3.5543
X5.3557Y-4.2943
X5.3717Y-4.2263
X5.3737Y-4.4043
X5.38Y-2.63
X5.382Y-4.976
X5.3835Y-4.5307
X5.3857Y-5.2843
X5.391Y-3.957
X5.396Y-3.0197
X5.396Y-3.436
X5.4547Y-4.5793
X5.458Y-3.689
X5.465Y-4.968
X5.519Y-3.181
X5.5433Y-3.5138
X5.561Y-4.0945
X5.569Y-4.279
X5.5886Y-3.6161
X5.5997Y-4.7313
X5.6057Y-3.7993
X5.6251Y-4.0945
X5.6607Y-4.4813
X5.686Y-4.033
X5.7007Y-5.0243
X5.7257Y-5.2843
X5.73Y-2.636
X5.7579Y-2.8148
X5.7657Y-4.1769
X5.77Y-3.677
X5.77Y-4.052
X5.7707Y-4.2343
X5.7777Y-4.8383
X5.8007Y-4.6063
X5.82Y-3.432
X5.828Y-3.955
X5.8607Y-4.5113
X5.8957Y-3.2105
X5.9445Y-2.9515
X5.9607Y-4.7243
X5.996Y-2.942
X6.025Y-2.786
X6.032Y-3.92
X6.0335Y-3.75
X6.063Y-3.5236
X6.0677Y-4.1193
X6.0728Y-3.0709
X6.0728Y-3.2185
X6.079Y-2.892
X6.1057Y-4.5743
X6.106Y-2.636
X6.1257Y-5.2843
X6.2205Y-2.8543
X6.2303Y-3.0906
X6.332Y-2.642
X6.336Y-4.79
X6.378Y-2.992
X6.388Y-2.962
X6.3935Y-2.8621
X6.4272Y-3.2479
X6.4585Y-3.0721
X6.5059Y-3.8583
X6.52Y-4.152
X6.52Y-4.78
T3
X6.3893Y-3.3463
X6.3893Y-3.5432
T4
X4.124Y-3.7633
X4.124Y-3.8633
X4.124Y-3.9633
X4.124Y-4.0633
X4.124Y-4.1633
X4.124Y-4.3063
X4.124Y-4.4063
X4.124Y-4.5063
X4.124Y-4.6063
T5
X6.1417Y-3.7894
X6.1417Y-4.3504
T6
X4.1339Y-2.6969
X4.1339Y-5.2559
X6.4567Y-2.6969
X6.4567Y-5.2559
T2
G00X6.3165Y-2.8219
M15
G01X6.3598Y-2.8219
M16
G05
G00X6.3165Y-3.1621
M15
G01X6.3598Y-3.1621
M16
G05
G00X6.4818Y-3.307
M15
G01X6.5094Y-3.307
M16
G05
G00X6.5094Y-3.5826
M15
G01X6.4818Y-3.5826
M16
G05
G00X6.4878Y-2.8219
M15
G01X6.5193Y-2.8219
M16
G05
G00X6.4878Y-3.1621
M15
G01X6.5193Y-3.1621
M16
G05
T4
G00X6.3484Y-3.9764
M15
G01X6.3484Y-3.9173
M16
G05
G00X6.3484Y-4.5276
M15
G01X6.3484Y-4.4685
M16
G05
M30
