%TF.GenerationSoftware,KiCad,Pcbnew,8.0.0*%
%TF.CreationDate,2024-10-16T16:52:34+02:00*%
%TF.ProjectId,LucaudioESP32_V1_1_0,4c756361-7564-4696-9f45-535033325f56,rev?*%
%TF.SameCoordinates,Original*%
%TF.FileFunction,Paste,Top*%
%TF.FilePolarity,Positive*%
%FSLAX46Y46*%
G04 Gerber Fmt 4.6, Leading zero omitted, Abs format (unit mm)*
G04 Created by KiCad (PCBNEW 8.0.0) date 2024-10-16 16:52:34*
%MOMM*%
%LPD*%
G01*
G04 APERTURE LIST*
G04 Aperture macros list*
%AMRoundRect*
0 Rectangle with rounded corners*
0 $1 Rounding radius*
0 $2 $3 $4 $5 $6 $7 $8 $9 X,Y pos of 4 corners*
0 Add a 4 corners polygon primitive as box body*
4,1,4,$2,$3,$4,$5,$6,$7,$8,$9,$2,$3,0*
0 Add four circle primitives for the rounded corners*
1,1,$1+$1,$2,$3*
1,1,$1+$1,$4,$5*
1,1,$1+$1,$6,$7*
1,1,$1+$1,$8,$9*
0 Add four rect primitives between the rounded corners*
20,1,$1+$1,$2,$3,$4,$5,0*
20,1,$1+$1,$4,$5,$6,$7,0*
20,1,$1+$1,$6,$7,$8,$9,0*
20,1,$1+$1,$8,$9,$2,$3,0*%
G04 Aperture macros list end*
%ADD10RoundRect,0.250000X-0.337500X-0.475000X0.337500X-0.475000X0.337500X0.475000X-0.337500X0.475000X0*%
%ADD11R,1.862500X0.400000*%
%ADD12RoundRect,0.250000X-0.250000X-0.475000X0.250000X-0.475000X0.250000X0.475000X-0.250000X0.475000X0*%
%ADD13RoundRect,0.250000X0.337500X0.475000X-0.337500X0.475000X-0.337500X-0.475000X0.337500X-0.475000X0*%
%ADD14RoundRect,0.250000X-0.475000X0.250000X-0.475000X-0.250000X0.475000X-0.250000X0.475000X0.250000X0*%
%ADD15R,1.500000X0.900000*%
%ADD16R,0.900000X0.900000*%
%ADD17RoundRect,0.250000X-0.250000X-0.250000X0.250000X-0.250000X0.250000X0.250000X-0.250000X0.250000X0*%
%ADD18RoundRect,0.250000X0.475000X-0.250000X0.475000X0.250000X-0.475000X0.250000X-0.475000X-0.250000X0*%
%ADD19RoundRect,0.150000X-0.512500X-0.150000X0.512500X-0.150000X0.512500X0.150000X-0.512500X0.150000X0*%
%ADD20RoundRect,0.250000X-0.350000X-0.450000X0.350000X-0.450000X0.350000X0.450000X-0.350000X0.450000X0*%
%ADD21RoundRect,0.250000X-0.450000X0.350000X-0.450000X-0.350000X0.450000X-0.350000X0.450000X0.350000X0*%
%ADD22RoundRect,0.375000X0.375000X-0.625000X0.375000X0.625000X-0.375000X0.625000X-0.375000X-0.625000X0*%
%ADD23RoundRect,0.500000X1.400000X-0.500000X1.400000X0.500000X-1.400000X0.500000X-1.400000X-0.500000X0*%
%ADD24RoundRect,0.250000X-0.550000X1.250000X-0.550000X-1.250000X0.550000X-1.250000X0.550000X1.250000X0*%
%ADD25RoundRect,0.250000X0.325000X0.450000X-0.325000X0.450000X-0.325000X-0.450000X0.325000X-0.450000X0*%
%ADD26R,1.240000X0.600000*%
%ADD27R,1.495000X0.300000*%
%ADD28R,1.495000X0.600000*%
%ADD29RoundRect,0.150000X-0.150000X0.675000X-0.150000X-0.675000X0.150000X-0.675000X0.150000X0.675000X0*%
%ADD30R,1.600000X1.400000*%
%ADD31RoundRect,0.250000X0.350000X0.450000X-0.350000X0.450000X-0.350000X-0.450000X0.350000X-0.450000X0*%
%ADD32R,2.800000X2.800000*%
%ADD33R,2.200000X2.800000*%
%ADD34RoundRect,0.250000X0.250000X0.475000X-0.250000X0.475000X-0.250000X-0.475000X0.250000X-0.475000X0*%
%ADD35RoundRect,0.100000X0.637500X0.100000X-0.637500X0.100000X-0.637500X-0.100000X0.637500X-0.100000X0*%
G04 APERTURE END LIST*
D10*
%TO.C,C29*%
X148079500Y-109838000D03*
X150154500Y-109838000D03*
%TD*%
D11*
%TO.C,J8*%
X162031250Y-88796800D03*
X162031250Y-88146800D03*
X162031250Y-87496800D03*
X162031250Y-86846800D03*
X162031250Y-86196800D03*
%TD*%
D12*
%TO.C,C15*%
X138927800Y-86715600D03*
X140827800Y-86715600D03*
%TD*%
D13*
%TO.C,C7*%
X134406500Y-110219000D03*
X132331500Y-110219000D03*
%TD*%
D14*
%TO.C,C10*%
X137998200Y-95530500D03*
X137998200Y-97430500D03*
%TD*%
D12*
%TO.C,C28*%
X150230800Y-88265000D03*
X152130800Y-88265000D03*
%TD*%
D15*
%TO.C,U1*%
X108750400Y-78867000D03*
X108750400Y-80137000D03*
X108750400Y-81407000D03*
X108750400Y-82677000D03*
X108750400Y-83947000D03*
X108750400Y-85217000D03*
X108750400Y-86487000D03*
X108750400Y-87757000D03*
X108750400Y-89027000D03*
X108750400Y-90297000D03*
X108750400Y-91567000D03*
X108750400Y-92837000D03*
X108750400Y-94107000D03*
X108750400Y-95377000D03*
X108750400Y-96647000D03*
X108750400Y-97917000D03*
X108750400Y-99187000D03*
X108750400Y-100457000D03*
X108750400Y-101727000D03*
X126250400Y-101727000D03*
X126250400Y-100457000D03*
X126250400Y-99187000D03*
X126250400Y-97917000D03*
X126250400Y-96647000D03*
X126250400Y-95377000D03*
X126250400Y-94107000D03*
X126250400Y-92837000D03*
X126250400Y-91567000D03*
X126250400Y-90297000D03*
X126250400Y-89027000D03*
X126250400Y-87757000D03*
X126250400Y-86487000D03*
X126250400Y-85217000D03*
X126250400Y-83947000D03*
X126250400Y-82677000D03*
X126250400Y-81407000D03*
X126250400Y-80137000D03*
X126250400Y-78867000D03*
D16*
X114595400Y-85262000D03*
X114600400Y-86662000D03*
X114600400Y-88062000D03*
X116000400Y-85262000D03*
X116000400Y-86662000D03*
X116000400Y-88062000D03*
X117400400Y-85262000D03*
X117400400Y-86662000D03*
X117400400Y-88062000D03*
%TD*%
D17*
%TO.C,D1*%
X140304200Y-93432500D03*
X142804200Y-93432500D03*
%TD*%
D18*
%TO.C,C31*%
X156299200Y-76948800D03*
X156299200Y-75048800D03*
%TD*%
D19*
%TO.C,U5*%
X140416700Y-129462000D03*
X140416700Y-130412000D03*
X140416700Y-131362000D03*
X142691700Y-131362000D03*
X142691700Y-129462000D03*
%TD*%
D20*
%TO.C,R16*%
X119034000Y-108187000D03*
X121034000Y-108187000D03*
%TD*%
D21*
%TO.C,R9*%
X156269500Y-71279700D03*
X156269500Y-73279700D03*
%TD*%
D13*
%TO.C,C2*%
X106295100Y-77724000D03*
X104220100Y-77724000D03*
%TD*%
D22*
%TO.C,U6*%
X143216600Y-89179800D03*
X145516600Y-89179800D03*
D23*
X145516600Y-82879800D03*
D22*
X147816600Y-89179800D03*
%TD*%
D12*
%TO.C,C23*%
X144865000Y-129269000D03*
X146765000Y-129269000D03*
%TD*%
D13*
%TO.C,C26*%
X150160900Y-102412800D03*
X148085900Y-102412800D03*
%TD*%
D24*
%TO.C,C6*%
X133273800Y-92643600D03*
X133273800Y-97043600D03*
%TD*%
D12*
%TO.C,C19*%
X144719000Y-95275400D03*
X146619000Y-95275400D03*
%TD*%
%TO.C,C4*%
X124000000Y-108146800D03*
X125900000Y-108146800D03*
%TD*%
D20*
%TO.C,R12*%
X104257600Y-84480400D03*
X106257600Y-84480400D03*
%TD*%
%TO.C,R8*%
X148117000Y-105393000D03*
X150117000Y-105393000D03*
%TD*%
D13*
%TO.C,C17*%
X142515500Y-101777800D03*
X140440500Y-101777800D03*
%TD*%
%TO.C,C25*%
X150154500Y-111997000D03*
X148079500Y-111997000D03*
%TD*%
D25*
%TO.C,D4*%
X157375000Y-91846800D03*
X155325000Y-91846800D03*
%TD*%
D24*
%TO.C,C9*%
X133248400Y-83728200D03*
X133248400Y-88128200D03*
%TD*%
D12*
%TO.C,C3*%
X113800000Y-108146800D03*
X115700000Y-108146800D03*
%TD*%
%TO.C,C24*%
X144865000Y-131301000D03*
X146765000Y-131301000D03*
%TD*%
%TO.C,C27*%
X150230800Y-84175600D03*
X152130800Y-84175600D03*
%TD*%
D26*
%TO.C,J3*%
X160389200Y-79196800D03*
X160389200Y-78396800D03*
D27*
X160261700Y-77746800D03*
X160261700Y-76746800D03*
X160261700Y-75246800D03*
X160261700Y-74246800D03*
D26*
X160389200Y-73596800D03*
X160389200Y-72796800D03*
D28*
X160261700Y-72796800D03*
X160261700Y-73596800D03*
D27*
X160261700Y-74746800D03*
X160261700Y-75746800D03*
X160261700Y-76246800D03*
X160261700Y-77246800D03*
D28*
X160261700Y-78396800D03*
X160261700Y-79196800D03*
%TD*%
D20*
%TO.C,R2*%
X132369000Y-107806000D03*
X134369000Y-107806000D03*
%TD*%
D17*
%TO.C,D3*%
X140297800Y-127110000D03*
X142797800Y-127110000D03*
%TD*%
D29*
%TO.C,U8*%
X152273000Y-73371800D03*
X151003000Y-73371800D03*
X149733000Y-73371800D03*
X148463000Y-73371800D03*
X148463000Y-78621800D03*
X149733000Y-78621800D03*
X151003000Y-78621800D03*
X152273000Y-78621800D03*
%TD*%
D30*
%TO.C,SW1*%
X115398000Y-126058000D03*
X107398000Y-126058000D03*
X115398000Y-121558000D03*
X107398000Y-121558000D03*
%TD*%
D14*
%TO.C,C11*%
X137966400Y-119225800D03*
X137966400Y-121125800D03*
%TD*%
D24*
%TO.C,C5*%
X133242000Y-127196000D03*
X133242000Y-131596000D03*
%TD*%
D13*
%TO.C,C18*%
X142540900Y-111997000D03*
X140465900Y-111997000D03*
%TD*%
D12*
%TO.C,C21*%
X144839600Y-119109000D03*
X146739600Y-119109000D03*
%TD*%
D20*
%TO.C,R1*%
X132369000Y-103234000D03*
X134369000Y-103234000D03*
%TD*%
D24*
%TO.C,C8*%
X133242000Y-115080200D03*
X133242000Y-119480200D03*
%TD*%
D20*
%TO.C,R7*%
X148117000Y-107679000D03*
X150117000Y-107679000D03*
%TD*%
%TO.C,R4*%
X132369000Y-105520000D03*
X134369000Y-105520000D03*
%TD*%
D12*
%TO.C,C14*%
X138927800Y-84607400D03*
X140827800Y-84607400D03*
%TD*%
D19*
%TO.C,U3*%
X140416700Y-95530500D03*
X140416700Y-96480500D03*
X140416700Y-97430500D03*
X142691700Y-97430500D03*
X142691700Y-95530500D03*
%TD*%
D12*
%TO.C,C30*%
X150230800Y-86207600D03*
X152130800Y-86207600D03*
%TD*%
D13*
%TO.C,C1*%
X106295100Y-80975200D03*
X104220100Y-80975200D03*
%TD*%
D31*
%TO.C,R11*%
X158000000Y-80500000D03*
X156000000Y-80500000D03*
%TD*%
D30*
%TO.C,SW2*%
X127082000Y-126058000D03*
X119082000Y-126058000D03*
X127082000Y-121558000D03*
X119082000Y-121558000D03*
%TD*%
D14*
%TO.C,C12*%
X138017200Y-129462000D03*
X138017200Y-131362000D03*
%TD*%
D20*
%TO.C,R3*%
X132369000Y-100948000D03*
X134369000Y-100948000D03*
%TD*%
D13*
%TO.C,C16*%
X142540900Y-99593400D03*
X140465900Y-99593400D03*
%TD*%
D12*
%TO.C,C20*%
X144719000Y-97300000D03*
X146619000Y-97300000D03*
%TD*%
%TO.C,C22*%
X144839600Y-121217200D03*
X146739600Y-121217200D03*
%TD*%
D32*
%TO.C,J9*%
X154366000Y-122394000D03*
D33*
X163766000Y-122394000D03*
X161766000Y-129794000D03*
%TD*%
D34*
%TO.C,C13*%
X146365000Y-78816200D03*
X144465000Y-78816200D03*
%TD*%
D17*
%TO.C,D2*%
X140247000Y-117127800D03*
X142747000Y-117127800D03*
%TD*%
D35*
%TO.C,U4*%
X144381600Y-109969000D03*
X144381600Y-109319000D03*
X144381600Y-108669000D03*
X144381600Y-108019000D03*
X144381600Y-107369000D03*
X144381600Y-106719000D03*
X144381600Y-106069000D03*
X144381600Y-105419000D03*
X144381600Y-104769000D03*
X144381600Y-104119000D03*
X138656600Y-104119000D03*
X138656600Y-104769000D03*
X138656600Y-105419000D03*
X138656600Y-106069000D03*
X138656600Y-106719000D03*
X138656600Y-107369000D03*
X138656600Y-108019000D03*
X138656600Y-108669000D03*
X138656600Y-109319000D03*
X138656600Y-109969000D03*
%TD*%
D31*
%TO.C,R15*%
X153250000Y-91846800D03*
X151250000Y-91846800D03*
%TD*%
D19*
%TO.C,U2*%
X140359500Y-119225800D03*
X140359500Y-120175800D03*
X140359500Y-121125800D03*
X142634500Y-121125800D03*
X142634500Y-119225800D03*
%TD*%
M02*
