%TF.GenerationSoftware,KiCad,Pcbnew,8.0.0*%
%TF.CreationDate,2024-10-16T16:52:34+02:00*%
%TF.ProjectId,LucaudioESP32_V1_1_0,4c756361-7564-4696-9f45-535033325f56,rev?*%
%TF.SameCoordinates,Original*%
%TF.FileFunction,Copper,L2,Bot*%
%TF.FilePolarity,Positive*%
%FSLAX46Y46*%
G04 Gerber Fmt 4.6, Leading zero omitted, Abs format (unit mm)*
G04 Created by KiCad (PCBNEW 8.0.0) date 2024-10-16 16:52:34*
%MOMM*%
%LPD*%
G01*
G04 APERTURE LIST*
%TA.AperFunction,ComponentPad*%
%ADD10R,1.700000X1.700000*%
%TD*%
%TA.AperFunction,ComponentPad*%
%ADD11O,1.700000X1.700000*%
%TD*%
%TA.AperFunction,ComponentPad*%
%ADD12O,1.900000X1.200000*%
%TD*%
%TA.AperFunction,ComponentPad*%
%ADD13C,1.450000*%
%TD*%
%TA.AperFunction,ComponentPad*%
%ADD14C,2.800000*%
%TD*%
%TA.AperFunction,ComponentPad*%
%ADD15R,2.200000X3.200000*%
%TD*%
%TA.AperFunction,ComponentPad*%
%ADD16C,3.500000*%
%TD*%
%TA.AperFunction,ComponentPad*%
%ADD17O,1.800000X1.000000*%
%TD*%
%TA.AperFunction,ComponentPad*%
%ADD18O,2.100000X1.000000*%
%TD*%
%TA.AperFunction,ViaPad*%
%ADD19C,0.600000*%
%TD*%
%TA.AperFunction,Conductor*%
%ADD20C,0.406400*%
%TD*%
%TA.AperFunction,Conductor*%
%ADD21C,0.200000*%
%TD*%
%TA.AperFunction,Conductor*%
%ADD22C,0.254000*%
%TD*%
G04 APERTURE END LIST*
D10*
%TO.P,J4,1,Pin_1*%
%TO.N,I2C_SDA*%
X104750000Y-117000000D03*
D11*
%TO.P,J4,2,Pin_2*%
%TO.N,I2C_SCL*%
X104750000Y-114460000D03*
%TO.P,J4,3,Pin_3*%
%TO.N,3V3*%
X104750000Y-111920000D03*
%TO.P,J4,4,Pin_4*%
%TO.N,GND*%
X104750000Y-109380000D03*
%TD*%
D10*
%TO.P,J5,1,Pin_1*%
%TO.N,ROTARY_SW*%
X104750000Y-105746800D03*
D11*
%TO.P,J5,2,Pin_2*%
%TO.N,ROTARY_A*%
X104750000Y-103206800D03*
%TO.P,J5,3,Pin_3*%
%TO.N,ROTARY_B*%
X104750000Y-100666800D03*
%TO.P,J5,4,Pin_4*%
%TO.N,LED_PWR*%
X104750000Y-98126800D03*
%TO.P,J5,5,Pin_5*%
%TO.N,LED_AMP*%
X104750000Y-95586800D03*
%TD*%
D12*
%TO.P,J8,6,Shield*%
%TO.N,GND*%
X164987500Y-90996800D03*
D13*
X162287500Y-89996800D03*
X162287500Y-84996800D03*
D12*
X164987500Y-83996800D03*
%TD*%
D14*
%TO.P,J2,1,IN1*%
%TO.N,Net-(J2-IN1)*%
X156000000Y-96250000D03*
%TO.P,J2,2,IN2*%
%TO.N,Net-(J2-IN2)*%
X156000000Y-110500000D03*
D15*
%TO.P,J2,3,EXT*%
%TO.N,GND*%
X161250000Y-114250000D03*
X161250000Y-100250000D03*
%TD*%
D16*
%TO.P,REF\u002A\u002A,1*%
%TO.N,N/C*%
X105000000Y-133500000D03*
%TD*%
%TO.P,REF\u002A\u002A,1*%
%TO.N,N/C*%
X164000000Y-133500000D03*
%TD*%
D17*
%TO.P,J3,S1,SHIELD*%
%TO.N,GND*%
X165189200Y-71676800D03*
D18*
X160989200Y-71676800D03*
D17*
X165189200Y-80316800D03*
D18*
X160989200Y-80316800D03*
%TD*%
D16*
%TO.P,REF\u002A\u002A,1*%
%TO.N,N/C*%
X105000000Y-68500000D03*
%TD*%
%TO.P,REF\u002A\u002A,1*%
%TO.N,N/C*%
X164000000Y-68500000D03*
%TD*%
D19*
%TO.N,GND*%
X155092400Y-66954400D03*
X142877000Y-104000000D03*
X160934400Y-121666000D03*
X153035000Y-70764400D03*
X105000000Y-71750000D03*
X107056000Y-88916000D03*
X154000000Y-89500000D03*
X105750000Y-101946800D03*
X136740800Y-115078800D03*
X154120800Y-104631000D03*
X131064000Y-90627200D03*
X112323000Y-96647000D03*
X116450000Y-78850000D03*
X130657600Y-101396800D03*
X147339000Y-117000800D03*
X149750000Y-81546800D03*
X145434000Y-134222000D03*
X136702800Y-126390400D03*
X128778000Y-67310000D03*
X153212800Y-99568000D03*
X136652000Y-66802000D03*
X165608000Y-105460800D03*
X144799000Y-127618000D03*
X154250000Y-78000000D03*
X137058400Y-87274400D03*
X164046200Y-78030800D03*
X158000000Y-72500000D03*
X128727200Y-70612000D03*
X130702000Y-104250000D03*
X158250000Y-78500000D03*
X146558000Y-93395800D03*
X110585200Y-132063000D03*
X123082000Y-119744000D03*
X116986000Y-114918000D03*
X140182600Y-80797400D03*
X105523000Y-96746800D03*
X165250000Y-98000000D03*
X112323000Y-94346800D03*
X142233600Y-120175800D03*
X108858000Y-111743000D03*
X155594000Y-134222000D03*
X104150000Y-93746800D03*
X165608000Y-121412000D03*
X148031200Y-100457000D03*
X128041400Y-80772000D03*
X137058400Y-76700000D03*
X136036000Y-109076000D03*
X146754800Y-122893600D03*
X129535000Y-134255000D03*
X110250000Y-89496800D03*
X107969000Y-115299000D03*
X117597000Y-94504000D03*
X106350000Y-104746800D03*
X124460000Y-88798400D03*
X121640600Y-83464400D03*
X129550000Y-87746800D03*
X123400000Y-100346800D03*
X106350000Y-107546800D03*
X123082000Y-124443000D03*
X140800000Y-89250000D03*
X111750000Y-102746800D03*
X155086000Y-116188000D03*
X144424400Y-102438200D03*
X145542000Y-66954400D03*
X129906800Y-122624800D03*
X146577000Y-107552000D03*
X136493200Y-111870000D03*
X124750000Y-100346800D03*
X104495600Y-75133200D03*
X146558000Y-102920800D03*
X153250000Y-95250000D03*
X129750000Y-99346800D03*
X110763000Y-108441000D03*
X136931400Y-100507800D03*
X128092200Y-83277000D03*
X163250000Y-82496800D03*
X146450000Y-106092000D03*
X105278000Y-86757000D03*
X142386000Y-96503000D03*
X151403000Y-119998000D03*
X141452600Y-108686600D03*
X128750000Y-77546800D03*
X111271000Y-123681000D03*
X111000000Y-78750000D03*
X132650000Y-81000000D03*
X136798000Y-134222000D03*
X131159557Y-77956357D03*
X141250000Y-104000000D03*
X146250000Y-71496800D03*
X105000000Y-120000000D03*
X136442400Y-107348800D03*
X154406600Y-73456800D03*
X141950000Y-91850000D03*
X160832800Y-67106800D03*
X122042000Y-101997000D03*
X162395200Y-72696800D03*
X121767600Y-78892400D03*
X128950000Y-108946800D03*
X154250000Y-81750000D03*
X110150000Y-96663000D03*
X143783000Y-113825800D03*
X128750000Y-73246800D03*
X135401000Y-90280000D03*
X148863000Y-114587800D03*
X114295000Y-101108000D03*
X121177000Y-134222000D03*
X110150000Y-100346800D03*
X118510000Y-110727000D03*
X112323000Y-90746800D03*
X114676000Y-81550000D03*
X117602000Y-90551000D03*
%TO.N,+5V*%
X138550600Y-116315000D03*
X147828000Y-87172800D03*
X138811000Y-126187200D03*
X138633200Y-93700600D03*
%TO.N,3V3*%
X107588000Y-111743000D03*
%TO.N,MCU_TX*%
X129921000Y-79400400D03*
X129438400Y-82372200D03*
%TO.N,MCU_RX*%
X130810000Y-82727800D03*
X131302338Y-80787662D03*
%TO.N,MCU_RST*%
X110718600Y-81965800D03*
X112750000Y-108146800D03*
%TO.N,GPIO0*%
X122447000Y-108187000D03*
X124045600Y-95885000D03*
%TO.N,Net-(U8-UD+)*%
X162255200Y-75234800D03*
X152298400Y-74726800D03*
%TO.N,Net-(U8-UD-)*%
X150990300Y-74968100D03*
X162001200Y-75996800D03*
%TO.N,ROTARY_A*%
X110550000Y-85746800D03*
%TO.N,ROTARY_SW*%
X111750000Y-92746800D03*
%TO.N,I2C_SDA*%
X128577444Y-101574244D03*
X128368100Y-105964900D03*
%TO.N,LED_AMP*%
X110231000Y-94504000D03*
%TO.N,I2C_SCL*%
X127550000Y-105783000D03*
X127750000Y-102146800D03*
%TO.N,LED_PWR*%
X110323000Y-97933000D03*
%TD*%
D20*
%TO.N,+5V*%
X138576000Y-116289600D02*
X138550600Y-116315000D01*
X138607800Y-125984000D02*
X138607800Y-112598200D01*
X138633200Y-93700600D02*
X138633200Y-112572800D01*
X145161000Y-87172800D02*
X147828000Y-87172800D01*
X138811000Y-126187200D02*
X138607800Y-125984000D01*
X138633200Y-93700600D02*
X145161000Y-87172800D01*
D21*
%TO.N,3V3*%
X107588000Y-111743000D02*
X107411000Y-111920000D01*
X107411000Y-111920000D02*
X104750000Y-111920000D01*
%TO.N,MCU_TX*%
X129438400Y-82372200D02*
X129921000Y-81889600D01*
X129921000Y-81889600D02*
X129921000Y-79400400D01*
%TO.N,MCU_RX*%
X131302338Y-82235462D02*
X131302338Y-80787662D01*
X130810000Y-82727800D02*
X131302338Y-82235462D01*
D22*
%TO.N,MCU_RST*%
X112950000Y-91186000D02*
X112950000Y-84197200D01*
X112950000Y-84197200D02*
X110718600Y-81965800D01*
X112750000Y-108146800D02*
X112950000Y-107946800D01*
X112950000Y-107946800D02*
X112950000Y-91186000D01*
%TO.N,GPIO0*%
X124050000Y-95889400D02*
X124045600Y-95885000D01*
X122447000Y-108187000D02*
X124050000Y-106584000D01*
X124050000Y-106584000D02*
X124050000Y-95889400D01*
%TO.N,Net-(U8-UD+)*%
X162179000Y-75158600D02*
X162255200Y-75234800D01*
X152730200Y-75158600D02*
X162179000Y-75158600D01*
X152298400Y-74726800D02*
X152730200Y-75158600D01*
%TO.N,Net-(U8-UD-)*%
X150990300Y-74968100D02*
X152120600Y-76098400D01*
X161899600Y-76098400D02*
X162001200Y-75996800D01*
X152120600Y-76098400D02*
X161899600Y-76098400D01*
%TO.N,ROTARY_A*%
X110950000Y-86146800D02*
X110550000Y-85746800D01*
X104750000Y-103206800D02*
X104753200Y-103210000D01*
X108486800Y-103210000D02*
X110950000Y-100746800D01*
X110950000Y-100746800D02*
X110950000Y-86146800D01*
X104753200Y-103210000D02*
X108486800Y-103210000D01*
%TO.N,ROTARY_SW*%
X106750000Y-105746800D02*
X104750000Y-105746800D01*
X111550000Y-100946800D02*
X106750000Y-105746800D01*
X111750000Y-92746800D02*
X111550000Y-92946800D01*
X111550000Y-92946800D02*
X111550000Y-100946800D01*
%TO.N,I2C_SDA*%
X128368100Y-105964900D02*
X128550000Y-105783000D01*
X128550000Y-105783000D02*
X128550000Y-101601688D01*
X128550000Y-101601688D02*
X128577444Y-101574244D01*
%TO.N,LED_AMP*%
X105578800Y-94758000D02*
X104750000Y-95586800D01*
X110231000Y-94504000D02*
X109977000Y-94758000D01*
X109977000Y-94758000D02*
X105578800Y-94758000D01*
%TO.N,I2C_SCL*%
X127750000Y-105583000D02*
X127750000Y-102146800D01*
X127550000Y-105783000D02*
X127750000Y-105583000D01*
%TO.N,LED_PWR*%
X110323000Y-97933000D02*
X110126000Y-98130000D01*
X110126000Y-98130000D02*
X104753200Y-98130000D01*
X104753200Y-98130000D02*
X104750000Y-98126800D01*
%TD*%
%TA.AperFunction,Conductor*%
%TO.N,GND*%
G36*
X163160597Y-66520002D02*
G01*
X163207090Y-66573658D01*
X163217194Y-66643932D01*
X163187700Y-66708512D01*
X163152863Y-66736586D01*
X162941052Y-66852244D01*
X162717328Y-67019721D01*
X162717319Y-67019729D01*
X162519729Y-67217319D01*
X162519721Y-67217328D01*
X162352244Y-67441052D01*
X162218311Y-67686330D01*
X162120650Y-67948172D01*
X162061245Y-68221252D01*
X162041309Y-68500000D01*
X162061245Y-68778747D01*
X162120650Y-69051827D01*
X162218311Y-69313669D01*
X162218312Y-69313670D01*
X162352244Y-69558948D01*
X162519720Y-69782670D01*
X162519721Y-69782671D01*
X162519729Y-69782680D01*
X162717319Y-69980270D01*
X162717328Y-69980278D01*
X162717330Y-69980280D01*
X162941052Y-70147756D01*
X163186330Y-70281688D01*
X163448173Y-70379350D01*
X163721249Y-70438754D01*
X164000000Y-70458691D01*
X164278751Y-70438754D01*
X164551827Y-70379350D01*
X164813670Y-70281688D01*
X165058948Y-70147756D01*
X165282670Y-69980280D01*
X165480280Y-69782670D01*
X165647756Y-69558948D01*
X165762738Y-69348373D01*
X165812939Y-69298173D01*
X165882314Y-69283081D01*
X165948834Y-69307892D01*
X165991381Y-69364727D01*
X165999325Y-69408789D01*
X165999052Y-70585231D01*
X165979034Y-70653347D01*
X165925368Y-70699828D01*
X165855091Y-70709915D01*
X165848470Y-70708781D01*
X165687693Y-70676800D01*
X165439200Y-70676800D01*
X165439200Y-71376800D01*
X164939200Y-71376800D01*
X164939200Y-70676800D01*
X164690706Y-70676800D01*
X164497510Y-70715229D01*
X164497505Y-70715231D01*
X164315522Y-70790611D01*
X164151737Y-70900048D01*
X164151731Y-70900053D01*
X164012453Y-71039331D01*
X164012448Y-71039337D01*
X163903011Y-71203122D01*
X163827629Y-71385109D01*
X163827627Y-71385116D01*
X163819336Y-71426799D01*
X163819337Y-71426800D01*
X164622212Y-71426800D01*
X164604995Y-71436740D01*
X164549140Y-71492595D01*
X164509644Y-71561004D01*
X164489200Y-71637304D01*
X164489200Y-71716296D01*
X164509644Y-71792596D01*
X164549140Y-71861005D01*
X164604995Y-71916860D01*
X164622212Y-71926800D01*
X163819336Y-71926800D01*
X163827627Y-71968483D01*
X163827629Y-71968490D01*
X163903011Y-72150477D01*
X164012448Y-72314262D01*
X164012453Y-72314268D01*
X164151731Y-72453546D01*
X164151737Y-72453551D01*
X164315522Y-72562988D01*
X164497505Y-72638368D01*
X164497510Y-72638370D01*
X164690706Y-72676799D01*
X164690710Y-72676800D01*
X164939200Y-72676800D01*
X164939200Y-71976800D01*
X165439200Y-71976800D01*
X165439200Y-72676800D01*
X165687690Y-72676800D01*
X165687693Y-72676799D01*
X165847964Y-72644919D01*
X165918678Y-72651247D01*
X165974745Y-72694801D01*
X165998365Y-72761753D01*
X165998546Y-72768527D01*
X165997050Y-79224832D01*
X165977032Y-79292948D01*
X165923366Y-79339429D01*
X165853089Y-79349516D01*
X165846469Y-79348382D01*
X165687696Y-79316800D01*
X165439200Y-79316800D01*
X165439200Y-80016800D01*
X164939200Y-80016800D01*
X164939200Y-79316800D01*
X164690706Y-79316800D01*
X164497510Y-79355229D01*
X164497505Y-79355231D01*
X164315522Y-79430611D01*
X164151737Y-79540048D01*
X164151731Y-79540053D01*
X164012453Y-79679331D01*
X164012448Y-79679337D01*
X163903011Y-79843122D01*
X163827629Y-80025109D01*
X163827627Y-80025116D01*
X163819336Y-80066799D01*
X163819337Y-80066800D01*
X164622212Y-80066800D01*
X164604995Y-80076740D01*
X164549140Y-80132595D01*
X164509644Y-80201004D01*
X164489200Y-80277304D01*
X164489200Y-80356296D01*
X164509644Y-80432596D01*
X164549140Y-80501005D01*
X164604995Y-80556860D01*
X164622212Y-80566800D01*
X163819336Y-80566800D01*
X163827627Y-80608483D01*
X163827629Y-80608490D01*
X163903011Y-80790477D01*
X164012448Y-80954262D01*
X164012453Y-80954268D01*
X164151731Y-81093546D01*
X164151737Y-81093551D01*
X164315522Y-81202988D01*
X164497505Y-81278368D01*
X164497510Y-81278370D01*
X164690706Y-81316799D01*
X164690710Y-81316800D01*
X164939200Y-81316800D01*
X164939200Y-80616800D01*
X165439200Y-80616800D01*
X165439200Y-81316800D01*
X165687690Y-81316800D01*
X165687693Y-81316799D01*
X165845961Y-81285317D01*
X165916675Y-81291645D01*
X165972742Y-81335199D01*
X165996362Y-81402151D01*
X165996543Y-81408925D01*
X165996199Y-82892281D01*
X165976181Y-82960397D01*
X165922515Y-83006878D01*
X165852238Y-83016965D01*
X165812996Y-83004519D01*
X165759754Y-82977391D01*
X165759748Y-82977388D01*
X165595088Y-82923887D01*
X165424069Y-82896800D01*
X165237500Y-82896800D01*
X165237500Y-83696800D01*
X164737500Y-83696800D01*
X164737500Y-82896800D01*
X164550931Y-82896800D01*
X164379911Y-82923887D01*
X164215251Y-82977388D01*
X164215245Y-82977391D01*
X164060972Y-83055997D01*
X163920896Y-83157767D01*
X163798467Y-83280196D01*
X163696697Y-83420272D01*
X163618091Y-83574545D01*
X163618088Y-83574551D01*
X163564587Y-83739212D01*
X163564583Y-83739225D01*
X163563384Y-83746799D01*
X163563386Y-83746800D01*
X164470512Y-83746800D01*
X164453295Y-83756740D01*
X164397440Y-83812595D01*
X164357944Y-83881004D01*
X164337500Y-83957304D01*
X164337500Y-84036296D01*
X164357944Y-84112596D01*
X164397440Y-84181005D01*
X164453295Y-84236860D01*
X164470512Y-84246800D01*
X163563384Y-84246800D01*
X163564583Y-84254374D01*
X163564586Y-84254385D01*
X163565081Y-84255907D01*
X163565098Y-84256516D01*
X163565741Y-84259193D01*
X163565178Y-84259328D01*
X163567105Y-84326874D01*
X163530440Y-84387671D01*
X163466727Y-84418993D01*
X163396193Y-84410898D01*
X163342033Y-84367109D01*
X163312672Y-84325179D01*
X162709225Y-84928626D01*
X162683537Y-84832756D01*
X162627584Y-84735844D01*
X162548456Y-84656716D01*
X162451544Y-84600763D01*
X162355672Y-84575074D01*
X162959120Y-83971625D01*
X162902342Y-83931868D01*
X162708077Y-83841281D01*
X162708073Y-83841279D01*
X162501030Y-83785803D01*
X162287500Y-83767121D01*
X162073969Y-83785803D01*
X161866926Y-83841279D01*
X161866922Y-83841281D01*
X161672657Y-83931868D01*
X161615879Y-83971624D01*
X161615879Y-83971627D01*
X162219326Y-84575074D01*
X162123456Y-84600763D01*
X162026544Y-84656716D01*
X161947416Y-84735844D01*
X161891463Y-84832756D01*
X161865774Y-84928626D01*
X161262327Y-84325179D01*
X161262324Y-84325179D01*
X161222568Y-84381957D01*
X161131981Y-84576222D01*
X161131979Y-84576226D01*
X161076503Y-84783269D01*
X161057821Y-84996800D01*
X161076503Y-85210330D01*
X161131979Y-85417373D01*
X161131981Y-85417377D01*
X161222568Y-85611642D01*
X161262325Y-85668420D01*
X161865774Y-85064971D01*
X161891463Y-85160844D01*
X161947416Y-85257756D01*
X162026544Y-85336884D01*
X162123456Y-85392837D01*
X162219327Y-85418525D01*
X161615878Y-86021973D01*
X161615878Y-86021975D01*
X161672656Y-86061731D01*
X161866921Y-86152318D01*
X161866926Y-86152320D01*
X162073969Y-86207796D01*
X162287500Y-86226478D01*
X162501030Y-86207796D01*
X162708073Y-86152320D01*
X162708078Y-86152318D01*
X162902339Y-86061733D01*
X162959120Y-86021974D01*
X162959120Y-86021972D01*
X162355673Y-85418525D01*
X162451544Y-85392837D01*
X162548456Y-85336884D01*
X162627584Y-85257756D01*
X162683537Y-85160844D01*
X162709225Y-85064973D01*
X163312672Y-85668420D01*
X163312674Y-85668420D01*
X163352433Y-85611639D01*
X163443018Y-85417378D01*
X163443020Y-85417373D01*
X163498496Y-85210330D01*
X163517178Y-84996800D01*
X163498496Y-84783269D01*
X163469448Y-84674858D01*
X163471138Y-84603881D01*
X163510932Y-84545086D01*
X163576197Y-84517138D01*
X163646210Y-84528912D01*
X163692112Y-84570537D01*
X163693787Y-84569321D01*
X163798467Y-84713403D01*
X163920896Y-84835832D01*
X164060972Y-84937602D01*
X164215245Y-85016208D01*
X164215251Y-85016211D01*
X164379911Y-85069712D01*
X164550931Y-85096800D01*
X164737500Y-85096800D01*
X164737500Y-84296800D01*
X165237500Y-84296800D01*
X165237500Y-85096800D01*
X165424069Y-85096800D01*
X165595088Y-85069712D01*
X165759748Y-85016211D01*
X165759759Y-85016206D01*
X165812483Y-84989342D01*
X165882260Y-84976237D01*
X165948045Y-85002936D01*
X165988952Y-85060964D01*
X165995687Y-85101637D01*
X165994577Y-89891455D01*
X165974559Y-89959571D01*
X165920893Y-90006052D01*
X165850616Y-90016139D01*
X165811374Y-90003693D01*
X165759754Y-89977391D01*
X165759748Y-89977388D01*
X165595088Y-89923887D01*
X165424069Y-89896800D01*
X165237500Y-89896800D01*
X165237500Y-90696800D01*
X164737500Y-90696800D01*
X164737500Y-89896800D01*
X164550931Y-89896800D01*
X164379911Y-89923887D01*
X164215251Y-89977388D01*
X164215245Y-89977391D01*
X164060972Y-90055997D01*
X163920896Y-90157767D01*
X163798467Y-90280196D01*
X163693787Y-90424279D01*
X163692111Y-90423061D01*
X163645889Y-90464843D01*
X163575843Y-90476418D01*
X163510658Y-90448286D01*
X163471030Y-90389378D01*
X163469448Y-90318741D01*
X163498496Y-90210330D01*
X163517178Y-89996800D01*
X163498496Y-89783269D01*
X163443020Y-89576226D01*
X163443018Y-89576222D01*
X163352434Y-89381964D01*
X163312672Y-89325179D01*
X162709225Y-89928626D01*
X162683537Y-89832756D01*
X162627584Y-89735844D01*
X162548456Y-89656716D01*
X162451544Y-89600763D01*
X162355672Y-89575074D01*
X162959120Y-88971625D01*
X162902342Y-88931868D01*
X162708077Y-88841281D01*
X162708073Y-88841279D01*
X162501030Y-88785803D01*
X162287500Y-88767121D01*
X162073969Y-88785803D01*
X161866926Y-88841279D01*
X161866922Y-88841281D01*
X161672657Y-88931868D01*
X161615879Y-88971624D01*
X161615879Y-88971627D01*
X162219326Y-89575074D01*
X162123456Y-89600763D01*
X162026544Y-89656716D01*
X161947416Y-89735844D01*
X161891463Y-89832756D01*
X161865774Y-89928626D01*
X161262327Y-89325179D01*
X161262324Y-89325179D01*
X161222568Y-89381957D01*
X161131981Y-89576222D01*
X161131979Y-89576226D01*
X161076503Y-89783269D01*
X161057821Y-89996800D01*
X161076503Y-90210330D01*
X161131979Y-90417373D01*
X161131981Y-90417377D01*
X161222568Y-90611642D01*
X161262325Y-90668420D01*
X161865774Y-90064971D01*
X161891463Y-90160844D01*
X161947416Y-90257756D01*
X162026544Y-90336884D01*
X162123456Y-90392837D01*
X162219327Y-90418525D01*
X161615878Y-91021973D01*
X161615878Y-91021975D01*
X161672656Y-91061731D01*
X161866921Y-91152318D01*
X161866926Y-91152320D01*
X162073969Y-91207796D01*
X162287500Y-91226478D01*
X162501030Y-91207796D01*
X162708073Y-91152320D01*
X162708078Y-91152318D01*
X162902339Y-91061733D01*
X162959120Y-91021974D01*
X162959120Y-91021972D01*
X162355673Y-90418525D01*
X162451544Y-90392837D01*
X162548456Y-90336884D01*
X162627584Y-90257756D01*
X162683537Y-90160844D01*
X162709225Y-90064973D01*
X163312672Y-90668420D01*
X163312674Y-90668420D01*
X163342032Y-90626493D01*
X163397489Y-90582164D01*
X163468108Y-90574855D01*
X163531469Y-90606885D01*
X163567454Y-90668087D01*
X163565199Y-90734276D01*
X163565741Y-90734407D01*
X163565104Y-90737058D01*
X163565083Y-90737683D01*
X163564589Y-90739201D01*
X163564583Y-90739225D01*
X163563384Y-90746799D01*
X163563386Y-90746800D01*
X164470512Y-90746800D01*
X164453295Y-90756740D01*
X164397440Y-90812595D01*
X164357944Y-90881004D01*
X164337500Y-90957304D01*
X164337500Y-91036296D01*
X164357944Y-91112596D01*
X164397440Y-91181005D01*
X164453295Y-91236860D01*
X164470512Y-91246800D01*
X163563384Y-91246800D01*
X163564583Y-91254374D01*
X163564587Y-91254387D01*
X163618088Y-91419048D01*
X163618091Y-91419054D01*
X163696697Y-91573327D01*
X163798467Y-91713403D01*
X163920896Y-91835832D01*
X164060972Y-91937602D01*
X164215245Y-92016208D01*
X164215251Y-92016211D01*
X164379911Y-92069712D01*
X164550931Y-92096800D01*
X164737500Y-92096800D01*
X164737500Y-91296800D01*
X165237500Y-91296800D01*
X165237500Y-92096800D01*
X165424069Y-92096800D01*
X165595088Y-92069712D01*
X165759748Y-92016211D01*
X165759753Y-92016209D01*
X165810860Y-91990168D01*
X165880637Y-91977063D01*
X165946422Y-92003762D01*
X165987329Y-92061789D01*
X165994065Y-92102463D01*
X165984685Y-132564458D01*
X165964667Y-132632574D01*
X165911001Y-132679055D01*
X165840724Y-132689142D01*
X165776150Y-132659634D01*
X165748099Y-132624816D01*
X165647756Y-132441052D01*
X165480280Y-132217330D01*
X165480278Y-132217328D01*
X165480270Y-132217319D01*
X165282680Y-132019729D01*
X165282671Y-132019721D01*
X165282670Y-132019720D01*
X165058948Y-131852244D01*
X164925015Y-131779111D01*
X164813669Y-131718311D01*
X164551827Y-131620650D01*
X164278747Y-131561245D01*
X164000000Y-131541309D01*
X163721252Y-131561245D01*
X163448172Y-131620650D01*
X163186330Y-131718311D01*
X162941052Y-131852244D01*
X162717328Y-132019721D01*
X162717319Y-132019729D01*
X162519729Y-132217319D01*
X162519721Y-132217328D01*
X162352244Y-132441052D01*
X162218311Y-132686330D01*
X162120650Y-132948172D01*
X162061245Y-133221252D01*
X162041309Y-133500000D01*
X162061245Y-133778747D01*
X162120650Y-134051827D01*
X162218311Y-134313669D01*
X162218312Y-134313670D01*
X162352244Y-134558948D01*
X162391788Y-134611772D01*
X162519721Y-134782671D01*
X162519729Y-134782680D01*
X162717319Y-134980270D01*
X162717328Y-134980278D01*
X162717330Y-134980280D01*
X162941052Y-135147756D01*
X163186330Y-135281688D01*
X163186335Y-135281690D01*
X163190425Y-135283558D01*
X163189762Y-135285008D01*
X163241168Y-135323486D01*
X163265982Y-135390005D01*
X163250895Y-135459379D01*
X163200695Y-135509584D01*
X163140304Y-135525000D01*
X105859696Y-135525000D01*
X105791575Y-135504998D01*
X105745082Y-135451342D01*
X105734978Y-135381068D01*
X105764472Y-135316488D01*
X105810135Y-135284784D01*
X105809575Y-135283558D01*
X105813659Y-135281692D01*
X105813670Y-135281688D01*
X106058948Y-135147756D01*
X106282670Y-134980280D01*
X106480280Y-134782670D01*
X106647756Y-134558948D01*
X106781688Y-134313670D01*
X106879350Y-134051827D01*
X106938754Y-133778751D01*
X106958691Y-133500000D01*
X106938754Y-133221249D01*
X106879350Y-132948173D01*
X106781688Y-132686330D01*
X106647756Y-132441052D01*
X106480280Y-132217330D01*
X106480278Y-132217328D01*
X106480270Y-132217319D01*
X106282680Y-132019729D01*
X106282671Y-132019721D01*
X106282670Y-132019720D01*
X106058948Y-131852244D01*
X105925015Y-131779111D01*
X105813669Y-131718311D01*
X105551827Y-131620650D01*
X105278747Y-131561245D01*
X105000000Y-131541309D01*
X104721252Y-131561245D01*
X104448172Y-131620650D01*
X104186330Y-131718311D01*
X103941052Y-131852244D01*
X103717328Y-132019721D01*
X103717319Y-132019729D01*
X103519729Y-132217319D01*
X103519721Y-132217328D01*
X103352242Y-132441054D01*
X103228924Y-132666894D01*
X103178722Y-132717096D01*
X103109348Y-132732187D01*
X103042828Y-132707376D01*
X103000281Y-132650540D01*
X102992338Y-132606499D01*
X102994046Y-117870064D01*
X103696300Y-117870064D01*
X103708118Y-117929479D01*
X103708119Y-117929480D01*
X103753140Y-117996860D01*
X103820520Y-118041881D01*
X103879936Y-118053700D01*
X103879941Y-118053700D01*
X105620059Y-118053700D01*
X105620064Y-118053700D01*
X105679480Y-118041881D01*
X105746860Y-117996860D01*
X105791881Y-117929480D01*
X105803700Y-117870064D01*
X105803700Y-116315000D01*
X138041720Y-116315000D01*
X138062333Y-116458368D01*
X138122503Y-116590121D01*
X138170124Y-116645079D01*
X138199617Y-116709658D01*
X138200900Y-116727591D01*
X138200900Y-126037573D01*
X138228629Y-126141057D01*
X138228630Y-126141060D01*
X138282196Y-126233839D01*
X138282197Y-126233840D01*
X138282199Y-126233843D01*
X138283638Y-126235282D01*
X138284463Y-126236793D01*
X138287227Y-126240395D01*
X138286665Y-126240825D01*
X138317667Y-126297590D01*
X138319263Y-126306434D01*
X138322733Y-126330568D01*
X138382903Y-126462321D01*
X138477755Y-126571787D01*
X138492220Y-126581083D01*
X138599604Y-126650094D01*
X138738579Y-126690900D01*
X138883421Y-126690900D01*
X139022396Y-126650094D01*
X139144246Y-126571786D01*
X139239097Y-126462321D01*
X139299267Y-126330568D01*
X139318718Y-126195281D01*
X154637700Y-126195281D01*
X154677217Y-126393944D01*
X154677219Y-126393949D01*
X154754732Y-126581083D01*
X154867266Y-126749502D01*
X154867271Y-126749508D01*
X155010491Y-126892728D01*
X155010497Y-126892733D01*
X155178917Y-127005268D01*
X155366056Y-127082783D01*
X155564721Y-127122300D01*
X155564722Y-127122300D01*
X155767278Y-127122300D01*
X155767279Y-127122300D01*
X155965944Y-127082783D01*
X156153083Y-127005268D01*
X156321503Y-126892733D01*
X156464733Y-126749503D01*
X156577268Y-126581083D01*
X156654783Y-126393944D01*
X156694300Y-126195281D01*
X161637700Y-126195281D01*
X161677217Y-126393944D01*
X161677219Y-126393949D01*
X161754732Y-126581083D01*
X161867266Y-126749502D01*
X161867271Y-126749508D01*
X162010491Y-126892728D01*
X162010497Y-126892733D01*
X162178917Y-127005268D01*
X162366056Y-127082783D01*
X162564721Y-127122300D01*
X162564722Y-127122300D01*
X162767278Y-127122300D01*
X162767279Y-127122300D01*
X162965944Y-127082783D01*
X163153083Y-127005268D01*
X163321503Y-126892733D01*
X163464733Y-126749503D01*
X163577268Y-126581083D01*
X163654783Y-126393944D01*
X163694300Y-126195279D01*
X163694300Y-125992721D01*
X163654783Y-125794056D01*
X163577268Y-125606917D01*
X163464733Y-125438497D01*
X163464728Y-125438491D01*
X163321508Y-125295271D01*
X163321502Y-125295266D01*
X163153083Y-125182732D01*
X162965949Y-125105219D01*
X162965944Y-125105217D01*
X162767281Y-125065700D01*
X162767279Y-125065700D01*
X162564721Y-125065700D01*
X162564718Y-125065700D01*
X162366055Y-125105217D01*
X162366050Y-125105219D01*
X162178916Y-125182732D01*
X162010497Y-125295266D01*
X162010491Y-125295271D01*
X161867271Y-125438491D01*
X161867266Y-125438497D01*
X161754732Y-125606916D01*
X161677219Y-125794050D01*
X161677217Y-125794055D01*
X161637700Y-125992718D01*
X161637700Y-126195281D01*
X156694300Y-126195281D01*
X156694300Y-126195279D01*
X156694300Y-125992721D01*
X156654783Y-125794056D01*
X156577268Y-125606917D01*
X156464733Y-125438497D01*
X156464728Y-125438491D01*
X156321508Y-125295271D01*
X156321502Y-125295266D01*
X156153083Y-125182732D01*
X155965949Y-125105219D01*
X155965944Y-125105217D01*
X155767281Y-125065700D01*
X155767279Y-125065700D01*
X155564721Y-125065700D01*
X155564718Y-125065700D01*
X155366055Y-125105217D01*
X155366050Y-125105219D01*
X155178916Y-125182732D01*
X155010497Y-125295266D01*
X155010491Y-125295271D01*
X154867271Y-125438491D01*
X154867266Y-125438497D01*
X154754732Y-125606916D01*
X154677219Y-125794050D01*
X154677217Y-125794055D01*
X154637700Y-125992718D01*
X154637700Y-126195281D01*
X139318718Y-126195281D01*
X139319880Y-126187200D01*
X139299267Y-126043832D01*
X139239097Y-125912079D01*
X139144246Y-125802614D01*
X139144245Y-125802613D01*
X139072579Y-125756556D01*
X139026086Y-125702900D01*
X139014700Y-125650558D01*
X139014700Y-120302727D01*
X158099500Y-120302727D01*
X158123569Y-120392557D01*
X158126794Y-120404591D01*
X158179517Y-120495909D01*
X158179525Y-120495919D01*
X158254080Y-120570474D01*
X158254085Y-120570478D01*
X158254087Y-120570480D01*
X158254088Y-120570481D01*
X158254090Y-120570482D01*
X158345408Y-120623205D01*
X158345410Y-120623205D01*
X158345413Y-120623207D01*
X158447273Y-120650500D01*
X158447275Y-120650500D01*
X162052725Y-120650500D01*
X162052727Y-120650500D01*
X162154587Y-120623207D01*
X162154590Y-120623205D01*
X162154591Y-120623205D01*
X162200250Y-120596843D01*
X162245913Y-120570480D01*
X162320480Y-120495913D01*
X162373207Y-120404587D01*
X162400500Y-120302727D01*
X162400500Y-117697273D01*
X162373207Y-117595413D01*
X162373205Y-117595410D01*
X162373205Y-117595408D01*
X162320482Y-117504090D01*
X162320474Y-117504080D01*
X162245919Y-117429525D01*
X162245909Y-117429517D01*
X162154591Y-117376794D01*
X162142557Y-117373569D01*
X162052727Y-117349500D01*
X158552727Y-117349500D01*
X158447273Y-117349500D01*
X158384931Y-117366204D01*
X158345408Y-117376794D01*
X158254090Y-117429517D01*
X158254080Y-117429525D01*
X158179525Y-117504080D01*
X158179517Y-117504090D01*
X158126794Y-117595408D01*
X158126793Y-117595413D01*
X158099500Y-117697273D01*
X158099500Y-120302727D01*
X139014700Y-120302727D01*
X139014700Y-116538694D01*
X139026088Y-116486349D01*
X139038866Y-116458370D01*
X139038865Y-116458370D01*
X139038867Y-116458368D01*
X139059480Y-116315000D01*
X139038867Y-116171632D01*
X139036531Y-116166517D01*
X139026086Y-116143644D01*
X139014700Y-116091303D01*
X139014700Y-115897840D01*
X159650000Y-115897840D01*
X159656400Y-115957371D01*
X159706647Y-116092089D01*
X159792810Y-116207189D01*
X159907910Y-116293352D01*
X160042628Y-116343599D01*
X160102159Y-116349999D01*
X160102176Y-116350000D01*
X161000000Y-116350000D01*
X161000000Y-115433012D01*
X161057007Y-115465925D01*
X161184174Y-115500000D01*
X161315826Y-115500000D01*
X161442993Y-115465925D01*
X161500000Y-115433012D01*
X161500000Y-116350000D01*
X162397824Y-116350000D01*
X162397840Y-116349999D01*
X162457371Y-116343599D01*
X162592089Y-116293352D01*
X162707189Y-116207189D01*
X162793352Y-116092089D01*
X162843599Y-115957371D01*
X162849999Y-115897840D01*
X162850000Y-115897823D01*
X162850000Y-114500000D01*
X161750000Y-114500000D01*
X161750000Y-114000000D01*
X162850000Y-114000000D01*
X162850000Y-112602176D01*
X162849999Y-112602159D01*
X162843599Y-112542628D01*
X162793352Y-112407910D01*
X162707189Y-112292810D01*
X162592089Y-112206647D01*
X162457371Y-112156400D01*
X162397840Y-112150000D01*
X161500000Y-112150000D01*
X161500000Y-113066988D01*
X161442993Y-113034075D01*
X161315826Y-113000000D01*
X161184174Y-113000000D01*
X161057007Y-113034075D01*
X161000000Y-113066988D01*
X161000000Y-112150000D01*
X160102159Y-112150000D01*
X160042628Y-112156400D01*
X159907910Y-112206647D01*
X159792810Y-112292810D01*
X159706647Y-112407910D01*
X159656400Y-112542628D01*
X159650000Y-112602159D01*
X159650000Y-114000000D01*
X160750000Y-114000000D01*
X160750000Y-114500000D01*
X159650000Y-114500000D01*
X159650000Y-115897840D01*
X139014700Y-115897840D01*
X139014700Y-112737748D01*
X139018994Y-112705135D01*
X139040100Y-112626369D01*
X139040100Y-110500000D01*
X154391341Y-110500000D01*
X154411146Y-110751649D01*
X154470073Y-110997101D01*
X154470074Y-110997103D01*
X154566674Y-111230316D01*
X154628841Y-111331763D01*
X154698569Y-111445547D01*
X154698570Y-111445549D01*
X154862505Y-111637494D01*
X154986038Y-111743000D01*
X155054454Y-111801432D01*
X155269684Y-111933326D01*
X155502897Y-112029926D01*
X155748350Y-112088854D01*
X156000000Y-112108659D01*
X156251650Y-112088854D01*
X156497103Y-112029926D01*
X156730316Y-111933326D01*
X156945546Y-111801432D01*
X157137494Y-111637494D01*
X157301432Y-111445546D01*
X157433326Y-111230316D01*
X157529926Y-110997103D01*
X157588854Y-110751650D01*
X157608659Y-110500000D01*
X157588854Y-110248350D01*
X157529926Y-110002897D01*
X157433326Y-109769684D01*
X157301432Y-109554454D01*
X157208656Y-109445826D01*
X157137494Y-109362505D01*
X156945549Y-109198570D01*
X156945547Y-109198569D01*
X156945546Y-109198568D01*
X156730316Y-109066674D01*
X156520828Y-108979901D01*
X156497101Y-108970073D01*
X156329193Y-108929762D01*
X156251650Y-108911146D01*
X156000000Y-108891341D01*
X155748350Y-108911146D01*
X155502898Y-108970073D01*
X155269685Y-109066673D01*
X155054452Y-109198569D01*
X155054450Y-109198570D01*
X154862505Y-109362505D01*
X154698570Y-109554450D01*
X154698569Y-109554452D01*
X154566673Y-109769685D01*
X154470073Y-110002898D01*
X154411146Y-110248350D01*
X154391341Y-110500000D01*
X139040100Y-110500000D01*
X139040100Y-101897840D01*
X159650000Y-101897840D01*
X159656400Y-101957371D01*
X159706647Y-102092089D01*
X159792810Y-102207189D01*
X159907910Y-102293352D01*
X160042628Y-102343599D01*
X160102159Y-102349999D01*
X160102176Y-102350000D01*
X161000000Y-102350000D01*
X161000000Y-101433012D01*
X161057007Y-101465925D01*
X161184174Y-101500000D01*
X161315826Y-101500000D01*
X161442993Y-101465925D01*
X161500000Y-101433012D01*
X161500000Y-102350000D01*
X162397824Y-102350000D01*
X162397840Y-102349999D01*
X162457371Y-102343599D01*
X162592089Y-102293352D01*
X162707189Y-102207189D01*
X162793352Y-102092089D01*
X162843599Y-101957371D01*
X162849999Y-101897840D01*
X162850000Y-101897823D01*
X162850000Y-100500000D01*
X161750000Y-100500000D01*
X161750000Y-100000000D01*
X162850000Y-100000000D01*
X162850000Y-98602176D01*
X162849999Y-98602159D01*
X162843599Y-98542628D01*
X162793352Y-98407910D01*
X162707189Y-98292810D01*
X162592089Y-98206647D01*
X162457371Y-98156400D01*
X162397840Y-98150000D01*
X161500000Y-98150000D01*
X161500000Y-99066988D01*
X161442993Y-99034075D01*
X161315826Y-99000000D01*
X161184174Y-99000000D01*
X161057007Y-99034075D01*
X161000000Y-99066988D01*
X161000000Y-98150000D01*
X160102159Y-98150000D01*
X160042628Y-98156400D01*
X159907910Y-98206647D01*
X159792810Y-98292810D01*
X159706647Y-98407910D01*
X159656400Y-98542628D01*
X159650000Y-98602159D01*
X159650000Y-100000000D01*
X160750000Y-100000000D01*
X160750000Y-100500000D01*
X159650000Y-100500000D01*
X159650000Y-101897840D01*
X139040100Y-101897840D01*
X139040100Y-96250000D01*
X154391341Y-96250000D01*
X154411146Y-96501650D01*
X154429762Y-96579193D01*
X154470073Y-96747101D01*
X154470074Y-96747103D01*
X154566674Y-96980316D01*
X154654238Y-97123207D01*
X154698569Y-97195547D01*
X154698570Y-97195549D01*
X154862505Y-97387494D01*
X155039385Y-97538562D01*
X155054454Y-97551432D01*
X155269684Y-97683326D01*
X155502897Y-97779926D01*
X155748350Y-97838854D01*
X156000000Y-97858659D01*
X156251650Y-97838854D01*
X156497103Y-97779926D01*
X156730316Y-97683326D01*
X156945546Y-97551432D01*
X157137494Y-97387494D01*
X157301432Y-97195546D01*
X157433326Y-96980316D01*
X157506886Y-96802727D01*
X158099500Y-96802727D01*
X158123569Y-96892557D01*
X158126794Y-96904591D01*
X158179517Y-96995909D01*
X158179525Y-96995919D01*
X158254080Y-97070474D01*
X158254085Y-97070478D01*
X158254087Y-97070480D01*
X158254088Y-97070481D01*
X158254090Y-97070482D01*
X158345408Y-97123205D01*
X158345410Y-97123205D01*
X158345413Y-97123207D01*
X158447273Y-97150500D01*
X158447275Y-97150500D01*
X162052725Y-97150500D01*
X162052727Y-97150500D01*
X162154587Y-97123207D01*
X162154590Y-97123205D01*
X162154591Y-97123205D01*
X162214970Y-97088345D01*
X162245913Y-97070480D01*
X162320480Y-96995913D01*
X162373207Y-96904587D01*
X162400500Y-96802727D01*
X162400500Y-94197273D01*
X162373207Y-94095413D01*
X162373205Y-94095410D01*
X162373205Y-94095408D01*
X162320482Y-94004090D01*
X162320474Y-94004080D01*
X162245919Y-93929525D01*
X162245909Y-93929517D01*
X162154591Y-93876794D01*
X162142557Y-93873569D01*
X162052727Y-93849500D01*
X158552727Y-93849500D01*
X158447273Y-93849500D01*
X158384931Y-93866204D01*
X158345408Y-93876794D01*
X158254090Y-93929517D01*
X158254080Y-93929525D01*
X158179525Y-94004080D01*
X158179517Y-94004090D01*
X158126794Y-94095408D01*
X158120362Y-94119414D01*
X158099500Y-94197273D01*
X158099500Y-96802727D01*
X157506886Y-96802727D01*
X157529926Y-96747103D01*
X157588854Y-96501650D01*
X157608659Y-96250000D01*
X157588854Y-95998350D01*
X157529926Y-95752897D01*
X157433326Y-95519684D01*
X157301432Y-95304454D01*
X157301429Y-95304450D01*
X157137494Y-95112505D01*
X156945549Y-94948570D01*
X156945547Y-94948569D01*
X156945546Y-94948568D01*
X156730316Y-94816674D01*
X156497103Y-94720074D01*
X156497101Y-94720073D01*
X156329193Y-94679762D01*
X156251650Y-94661146D01*
X156000000Y-94641341D01*
X155748350Y-94661146D01*
X155502898Y-94720073D01*
X155269685Y-94816673D01*
X155054452Y-94948569D01*
X155054450Y-94948570D01*
X154862505Y-95112505D01*
X154698570Y-95304450D01*
X154698569Y-95304452D01*
X154566673Y-95519685D01*
X154470073Y-95752898D01*
X154460361Y-95793354D01*
X154411146Y-95998350D01*
X154391341Y-96250000D01*
X139040100Y-96250000D01*
X139040100Y-94045701D01*
X139058159Y-93984195D01*
X139057553Y-93983919D01*
X139059479Y-93979701D01*
X139060102Y-93977580D01*
X139060103Y-93977578D01*
X139061289Y-93975729D01*
X139061297Y-93975721D01*
X139121467Y-93843968D01*
X139124934Y-93819851D01*
X139154424Y-93755272D01*
X139160542Y-93748700D01*
X145292639Y-87616605D01*
X145354951Y-87582579D01*
X145381734Y-87579700D01*
X147492479Y-87579700D01*
X147560598Y-87599701D01*
X147616604Y-87635694D01*
X147755579Y-87676500D01*
X147900421Y-87676500D01*
X148039396Y-87635694D01*
X148161246Y-87557386D01*
X148256097Y-87447921D01*
X148316267Y-87316168D01*
X148336880Y-87172800D01*
X148316267Y-87029432D01*
X148256097Y-86897679D01*
X148161246Y-86788214D01*
X148161245Y-86788213D01*
X148161244Y-86788212D01*
X148039400Y-86709908D01*
X148039397Y-86709906D01*
X148039396Y-86709906D01*
X147900421Y-86669100D01*
X147755579Y-86669100D01*
X147616606Y-86709905D01*
X147616599Y-86709908D01*
X147560599Y-86745898D01*
X147492479Y-86765900D01*
X145107431Y-86765900D01*
X145031674Y-86786198D01*
X145031672Y-86786199D01*
X145003942Y-86793630D01*
X144957549Y-86820414D01*
X144911158Y-86847198D01*
X144911150Y-86847204D01*
X138584478Y-93173877D01*
X138530882Y-93205678D01*
X138468540Y-93223983D01*
X138421804Y-93237706D01*
X138421802Y-93237706D01*
X138421799Y-93237708D01*
X138299955Y-93316012D01*
X138205103Y-93425478D01*
X138205103Y-93425479D01*
X138144933Y-93557232D01*
X138124320Y-93700600D01*
X138144933Y-93843968D01*
X138205103Y-93975721D01*
X138205106Y-93975725D01*
X138206297Y-93977578D01*
X138206919Y-93979699D01*
X138208847Y-93983919D01*
X138208240Y-93984196D01*
X138226300Y-94045698D01*
X138226300Y-112433247D01*
X138222007Y-112465857D01*
X138200900Y-112544630D01*
X138200900Y-115902407D01*
X138180898Y-115970528D01*
X138170126Y-115984918D01*
X138122502Y-116039880D01*
X138062333Y-116171631D01*
X138062333Y-116171632D01*
X138041720Y-116315000D01*
X105803700Y-116315000D01*
X105803700Y-116129936D01*
X105791881Y-116070520D01*
X105746860Y-116003140D01*
X105679480Y-115958119D01*
X105679479Y-115958118D01*
X105620064Y-115946300D01*
X103879936Y-115946300D01*
X103879935Y-115946300D01*
X103820520Y-115958118D01*
X103753140Y-116003140D01*
X103708118Y-116070520D01*
X103696300Y-116129935D01*
X103696300Y-117870064D01*
X102994046Y-117870064D01*
X102994441Y-114460002D01*
X103691202Y-114460002D01*
X103711545Y-114666554D01*
X103711546Y-114666560D01*
X103711547Y-114666561D01*
X103771798Y-114865184D01*
X103869642Y-115048237D01*
X104001317Y-115208683D01*
X104161763Y-115340358D01*
X104344816Y-115438202D01*
X104543439Y-115498453D01*
X104543443Y-115498453D01*
X104543445Y-115498454D01*
X104749997Y-115518798D01*
X104750000Y-115518798D01*
X104750003Y-115518798D01*
X104956554Y-115498454D01*
X104956555Y-115498453D01*
X104956561Y-115498453D01*
X105155184Y-115438202D01*
X105338237Y-115340358D01*
X105498683Y-115208683D01*
X105630358Y-115048237D01*
X105728202Y-114865184D01*
X105788453Y-114666561D01*
X105808798Y-114460000D01*
X105788453Y-114253439D01*
X105728202Y-114054816D01*
X105630358Y-113871763D01*
X105498683Y-113711317D01*
X105338237Y-113579642D01*
X105155184Y-113481798D01*
X104956561Y-113421547D01*
X104956560Y-113421546D01*
X104956554Y-113421545D01*
X104750003Y-113401202D01*
X104749997Y-113401202D01*
X104543445Y-113421545D01*
X104344815Y-113481798D01*
X104161762Y-113579642D01*
X104001317Y-113711317D01*
X103869642Y-113871762D01*
X103771798Y-114054815D01*
X103711545Y-114253445D01*
X103691202Y-114459997D01*
X103691202Y-114460002D01*
X102994441Y-114460002D01*
X102995059Y-109130000D01*
X103419363Y-109130000D01*
X104316988Y-109130000D01*
X104284075Y-109187007D01*
X104250000Y-109314174D01*
X104250000Y-109445826D01*
X104284075Y-109572993D01*
X104316988Y-109630000D01*
X103419364Y-109630000D01*
X103476568Y-109843488D01*
X103476570Y-109843493D01*
X103576399Y-110057577D01*
X103576400Y-110057579D01*
X103711886Y-110251073D01*
X103711893Y-110251082D01*
X103878917Y-110418106D01*
X103878926Y-110418113D01*
X104072420Y-110553599D01*
X104072422Y-110553600D01*
X104286506Y-110653429D01*
X104286513Y-110653432D01*
X104396032Y-110682777D01*
X104456655Y-110719728D01*
X104487677Y-110783589D01*
X104479249Y-110854083D01*
X104434047Y-110908830D01*
X104399998Y-110925058D01*
X104344820Y-110941795D01*
X104344816Y-110941797D01*
X104161762Y-111039642D01*
X104001317Y-111171317D01*
X103869642Y-111331762D01*
X103771798Y-111514815D01*
X103711545Y-111713445D01*
X103691202Y-111919997D01*
X103691202Y-111920002D01*
X103711545Y-112126554D01*
X103711546Y-112126560D01*
X103711547Y-112126561D01*
X103771798Y-112325184D01*
X103869642Y-112508237D01*
X104001317Y-112668683D01*
X104161763Y-112800358D01*
X104344816Y-112898202D01*
X104543439Y-112958453D01*
X104543443Y-112958453D01*
X104543445Y-112958454D01*
X104749997Y-112978798D01*
X104750000Y-112978798D01*
X104750003Y-112978798D01*
X104956554Y-112958454D01*
X104956555Y-112958453D01*
X104956561Y-112958453D01*
X105155184Y-112898202D01*
X105338237Y-112800358D01*
X105498683Y-112668683D01*
X105630358Y-112508237D01*
X105728202Y-112325184D01*
X105731860Y-112313124D01*
X105770775Y-112253743D01*
X105835617Y-112224827D01*
X105852435Y-112223700D01*
X107371017Y-112223700D01*
X107419132Y-112223700D01*
X107454629Y-112228803D01*
X107515579Y-112246700D01*
X107660421Y-112246700D01*
X107799396Y-112205894D01*
X107921246Y-112127586D01*
X108016097Y-112018121D01*
X108076267Y-111886368D01*
X108096880Y-111743000D01*
X108076267Y-111599632D01*
X108016097Y-111467879D01*
X107921246Y-111358414D01*
X107921245Y-111358413D01*
X107921244Y-111358412D01*
X107799400Y-111280108D01*
X107799397Y-111280106D01*
X107799396Y-111280106D01*
X107660421Y-111239300D01*
X107515579Y-111239300D01*
X107376606Y-111280105D01*
X107376599Y-111280108D01*
X107254755Y-111358412D01*
X107159903Y-111467878D01*
X107125760Y-111542642D01*
X107079267Y-111596298D01*
X107011146Y-111616300D01*
X105852435Y-111616300D01*
X105784314Y-111596298D01*
X105737821Y-111542642D01*
X105731860Y-111526875D01*
X105728202Y-111514816D01*
X105630358Y-111331763D01*
X105498683Y-111171317D01*
X105338237Y-111039642D01*
X105155184Y-110941798D01*
X105100001Y-110925058D01*
X105040620Y-110886144D01*
X105011705Y-110821302D01*
X105022435Y-110751121D01*
X105069405Y-110697883D01*
X105103967Y-110682777D01*
X105213486Y-110653432D01*
X105213493Y-110653429D01*
X105427577Y-110553600D01*
X105427579Y-110553599D01*
X105621073Y-110418113D01*
X105621082Y-110418106D01*
X105788106Y-110251082D01*
X105788113Y-110251073D01*
X105923599Y-110057579D01*
X105923600Y-110057577D01*
X106023429Y-109843493D01*
X106023431Y-109843488D01*
X106080636Y-109630000D01*
X105183012Y-109630000D01*
X105215925Y-109572993D01*
X105250000Y-109445826D01*
X105250000Y-109314174D01*
X105215925Y-109187007D01*
X105183012Y-109130000D01*
X106080636Y-109130000D01*
X106023431Y-108916511D01*
X106023429Y-108916506D01*
X105923599Y-108702421D01*
X105788112Y-108508925D01*
X105621076Y-108341888D01*
X105621073Y-108341886D01*
X105427579Y-108206400D01*
X105427577Y-108206399D01*
X105213493Y-108106570D01*
X105213488Y-108106568D01*
X105000000Y-108049364D01*
X105000000Y-108946988D01*
X104942993Y-108914075D01*
X104815826Y-108880000D01*
X104684174Y-108880000D01*
X104557007Y-108914075D01*
X104500000Y-108946988D01*
X104500000Y-108049364D01*
X104286511Y-108106568D01*
X104286506Y-108106570D01*
X104072421Y-108206400D01*
X103878925Y-108341887D01*
X103878919Y-108341892D01*
X103711892Y-108508919D01*
X103711887Y-108508925D01*
X103576400Y-108702421D01*
X103476570Y-108916506D01*
X103476568Y-108916511D01*
X103419363Y-109130000D01*
X102995059Y-109130000D01*
X102995746Y-103206802D01*
X103691202Y-103206802D01*
X103711545Y-103413354D01*
X103711546Y-103413360D01*
X103711547Y-103413361D01*
X103771798Y-103611984D01*
X103869642Y-103795037D01*
X104001317Y-103955483D01*
X104161763Y-104087158D01*
X104344816Y-104185002D01*
X104543439Y-104245253D01*
X104543443Y-104245253D01*
X104543445Y-104245254D01*
X104749997Y-104265598D01*
X104750000Y-104265598D01*
X104750003Y-104265598D01*
X104956554Y-104245254D01*
X104956555Y-104245253D01*
X104956561Y-104245253D01*
X105155184Y-104185002D01*
X105338237Y-104087158D01*
X105498683Y-103955483D01*
X105630358Y-103795037D01*
X105728202Y-103611984D01*
X105730704Y-103607304D01*
X105780456Y-103556656D01*
X105841826Y-103540700D01*
X108184230Y-103540700D01*
X108252351Y-103560702D01*
X108298844Y-103614358D01*
X108308948Y-103684632D01*
X108279454Y-103749212D01*
X108273325Y-103755795D01*
X106649925Y-105379195D01*
X106587613Y-105413221D01*
X106560830Y-105416100D01*
X105929700Y-105416100D01*
X105861579Y-105396098D01*
X105815086Y-105342442D01*
X105803700Y-105290100D01*
X105803700Y-104876740D01*
X105803700Y-104876736D01*
X105791881Y-104817320D01*
X105746860Y-104749940D01*
X105679480Y-104704919D01*
X105679479Y-104704918D01*
X105620064Y-104693100D01*
X103879936Y-104693100D01*
X103879935Y-104693100D01*
X103820520Y-104704918D01*
X103753140Y-104749940D01*
X103708118Y-104817320D01*
X103696300Y-104876735D01*
X103696300Y-106616864D01*
X103708118Y-106676279D01*
X103708119Y-106676280D01*
X103753140Y-106743660D01*
X103820520Y-106788681D01*
X103879936Y-106800500D01*
X103879941Y-106800500D01*
X105620059Y-106800500D01*
X105620064Y-106800500D01*
X105679480Y-106788681D01*
X105746860Y-106743660D01*
X105791881Y-106676280D01*
X105803700Y-106616864D01*
X105803700Y-106203500D01*
X105823702Y-106135379D01*
X105877358Y-106088886D01*
X105929700Y-106077500D01*
X106793536Y-106077500D01*
X106793537Y-106077500D01*
X106793538Y-106077500D01*
X106877646Y-106054964D01*
X106924426Y-106027955D01*
X106953054Y-106011427D01*
X107024993Y-105939488D01*
X107025000Y-105939478D01*
X111742678Y-101221800D01*
X111742688Y-101221793D01*
X111814627Y-101149854D01*
X111836858Y-101111349D01*
X111858164Y-101074446D01*
X111880700Y-100990338D01*
X111880700Y-93327521D01*
X111900702Y-93259400D01*
X111954358Y-93212907D01*
X111954361Y-93212906D01*
X111961389Y-93209695D01*
X111961396Y-93209694D01*
X112083246Y-93131386D01*
X112178097Y-93021921D01*
X112238267Y-92890168D01*
X112258880Y-92746800D01*
X112238267Y-92603432D01*
X112178097Y-92471679D01*
X112083246Y-92362214D01*
X112083245Y-92362213D01*
X112083244Y-92362212D01*
X111961400Y-92283908D01*
X111961397Y-92283906D01*
X111961396Y-92283906D01*
X111822421Y-92243100D01*
X111677579Y-92243100D01*
X111538606Y-92283905D01*
X111538599Y-92283908D01*
X111474820Y-92324897D01*
X111406699Y-92344899D01*
X111338579Y-92324897D01*
X111292086Y-92271241D01*
X111280700Y-92218899D01*
X111280700Y-86103264D01*
X111280700Y-86103262D01*
X111258164Y-86019154D01*
X111253733Y-86011480D01*
X111214627Y-85943745D01*
X111148666Y-85877784D01*
X111148643Y-85877763D01*
X111095452Y-85824572D01*
X111061426Y-85762260D01*
X111059829Y-85753408D01*
X111058879Y-85746803D01*
X111058880Y-85746800D01*
X111038267Y-85603432D01*
X110978097Y-85471679D01*
X110883246Y-85362214D01*
X110883245Y-85362213D01*
X110883244Y-85362212D01*
X110761400Y-85283908D01*
X110761397Y-85283906D01*
X110761396Y-85283906D01*
X110622421Y-85243100D01*
X110477579Y-85243100D01*
X110338606Y-85283905D01*
X110338599Y-85283908D01*
X110216755Y-85362212D01*
X110121903Y-85471678D01*
X110061733Y-85603431D01*
X110041120Y-85746800D01*
X110061733Y-85890168D01*
X110121903Y-86021921D01*
X110216755Y-86131387D01*
X110338599Y-86209691D01*
X110338604Y-86209694D01*
X110477579Y-86250500D01*
X110493300Y-86250500D01*
X110561421Y-86270502D01*
X110607914Y-86324158D01*
X110619300Y-86376500D01*
X110619300Y-93925836D01*
X110599298Y-93993957D01*
X110545642Y-94040450D01*
X110475368Y-94050554D01*
X110451105Y-94043429D01*
X110451042Y-94043645D01*
X110442396Y-94041106D01*
X110303421Y-94000300D01*
X110158579Y-94000300D01*
X110019606Y-94041105D01*
X110019599Y-94041108D01*
X109897755Y-94119412D01*
X109802903Y-94228878D01*
X109802903Y-94228879D01*
X109745924Y-94353643D01*
X109699433Y-94407298D01*
X109631312Y-94427300D01*
X105535262Y-94427300D01*
X105451157Y-94449835D01*
X105451149Y-94449838D01*
X105375746Y-94493372D01*
X105344960Y-94524158D01*
X105314174Y-94554945D01*
X105314172Y-94554947D01*
X105289199Y-94579920D01*
X105226886Y-94613944D01*
X105161451Y-94609262D01*
X105161108Y-94610395D01*
X105156118Y-94608881D01*
X105156070Y-94608878D01*
X105155945Y-94608828D01*
X104978325Y-94554949D01*
X104956561Y-94548347D01*
X104956560Y-94548346D01*
X104956554Y-94548345D01*
X104750003Y-94528002D01*
X104749997Y-94528002D01*
X104543445Y-94548345D01*
X104344815Y-94608598D01*
X104161762Y-94706442D01*
X104001317Y-94838117D01*
X103869642Y-94998562D01*
X103771798Y-95181615D01*
X103711545Y-95380245D01*
X103691202Y-95586797D01*
X103691202Y-95586802D01*
X103711545Y-95793354D01*
X103711546Y-95793360D01*
X103711547Y-95793361D01*
X103771798Y-95991984D01*
X103869642Y-96175037D01*
X104001317Y-96335483D01*
X104161763Y-96467158D01*
X104344816Y-96565002D01*
X104543439Y-96625253D01*
X104543443Y-96625253D01*
X104543445Y-96625254D01*
X104749997Y-96645598D01*
X104750000Y-96645598D01*
X104750003Y-96645598D01*
X104956554Y-96625254D01*
X104956555Y-96625253D01*
X104956561Y-96625253D01*
X105155184Y-96565002D01*
X105338237Y-96467158D01*
X105498683Y-96335483D01*
X105630358Y-96175037D01*
X105728202Y-95991984D01*
X105788453Y-95793361D01*
X105792439Y-95752898D01*
X105808798Y-95586802D01*
X105808798Y-95586797D01*
X105788454Y-95380245D01*
X105788453Y-95380243D01*
X105788453Y-95380239D01*
X105749331Y-95251272D01*
X105748699Y-95180282D01*
X105786548Y-95120215D01*
X105850863Y-95090147D01*
X105869907Y-95088700D01*
X110020536Y-95088700D01*
X110020537Y-95088700D01*
X110020538Y-95088700D01*
X110104646Y-95066164D01*
X110141952Y-95044624D01*
X110176670Y-95024581D01*
X110239670Y-95007700D01*
X110303421Y-95007700D01*
X110442396Y-94966894D01*
X110442396Y-94966893D01*
X110451042Y-94964355D01*
X110451534Y-94966031D01*
X110511219Y-94957444D01*
X110575803Y-94986930D01*
X110614193Y-95046653D01*
X110619300Y-95082163D01*
X110619300Y-97326720D01*
X110599298Y-97394841D01*
X110545642Y-97441334D01*
X110475368Y-97451438D01*
X110457803Y-97447616D01*
X110395422Y-97429300D01*
X110395421Y-97429300D01*
X110250579Y-97429300D01*
X110111606Y-97470105D01*
X110111599Y-97470108D01*
X109989755Y-97548412D01*
X109894903Y-97657878D01*
X109894903Y-97657879D01*
X109863955Y-97725643D01*
X109817464Y-97779298D01*
X109749343Y-97799300D01*
X105844570Y-97799300D01*
X105776449Y-97779298D01*
X105731173Y-97727046D01*
X105731120Y-97727075D01*
X105730994Y-97726840D01*
X105729956Y-97725642D01*
X105728211Y-97721633D01*
X105728201Y-97721615D01*
X105630358Y-97538563D01*
X105498683Y-97378117D01*
X105338237Y-97246442D01*
X105155184Y-97148598D01*
X104956561Y-97088347D01*
X104956560Y-97088346D01*
X104956554Y-97088345D01*
X104750003Y-97068002D01*
X104749997Y-97068002D01*
X104543445Y-97088345D01*
X104344815Y-97148598D01*
X104161762Y-97246442D01*
X104001317Y-97378117D01*
X103869642Y-97538562D01*
X103771798Y-97721615D01*
X103711545Y-97920245D01*
X103691202Y-98126797D01*
X103691202Y-98126802D01*
X103711545Y-98333354D01*
X103711546Y-98333360D01*
X103711547Y-98333361D01*
X103771798Y-98531984D01*
X103869642Y-98715037D01*
X104001317Y-98875483D01*
X104161763Y-99007158D01*
X104344816Y-99105002D01*
X104543439Y-99165253D01*
X104543443Y-99165253D01*
X104543445Y-99165254D01*
X104749997Y-99185598D01*
X104750000Y-99185598D01*
X104750003Y-99185598D01*
X104956554Y-99165254D01*
X104956555Y-99165253D01*
X104956561Y-99165253D01*
X105155184Y-99105002D01*
X105338237Y-99007158D01*
X105498683Y-98875483D01*
X105630358Y-98715037D01*
X105728202Y-98531984D01*
X105730704Y-98527304D01*
X105780456Y-98476656D01*
X105841826Y-98460700D01*
X110169536Y-98460700D01*
X110169537Y-98460700D01*
X110169538Y-98460700D01*
X110243088Y-98440993D01*
X110275698Y-98436700D01*
X110395420Y-98436700D01*
X110395421Y-98436700D01*
X110457804Y-98418383D01*
X110528798Y-98418383D01*
X110588524Y-98456766D01*
X110618017Y-98521347D01*
X110619300Y-98539279D01*
X110619300Y-100557630D01*
X110599298Y-100625751D01*
X110582395Y-100646725D01*
X108386725Y-102842395D01*
X108324413Y-102876421D01*
X108297630Y-102879300D01*
X105844570Y-102879300D01*
X105776449Y-102859298D01*
X105731173Y-102807046D01*
X105731120Y-102807075D01*
X105730994Y-102806840D01*
X105729956Y-102805642D01*
X105728211Y-102801633D01*
X105630357Y-102618562D01*
X105498683Y-102458117D01*
X105338237Y-102326442D01*
X105155184Y-102228598D01*
X104956561Y-102168347D01*
X104956560Y-102168346D01*
X104956554Y-102168345D01*
X104750003Y-102148002D01*
X104749997Y-102148002D01*
X104543445Y-102168345D01*
X104344815Y-102228598D01*
X104161762Y-102326442D01*
X104001317Y-102458117D01*
X103869642Y-102618562D01*
X103771798Y-102801615D01*
X103711545Y-103000245D01*
X103691202Y-103206797D01*
X103691202Y-103206802D01*
X102995746Y-103206802D01*
X102996040Y-100666802D01*
X103691202Y-100666802D01*
X103711545Y-100873354D01*
X103711546Y-100873360D01*
X103711547Y-100873361D01*
X103771798Y-101071984D01*
X103869642Y-101255037D01*
X104001317Y-101415483D01*
X104161763Y-101547158D01*
X104344816Y-101645002D01*
X104543439Y-101705253D01*
X104543443Y-101705253D01*
X104543445Y-101705254D01*
X104749997Y-101725598D01*
X104750000Y-101725598D01*
X104750003Y-101725598D01*
X104956554Y-101705254D01*
X104956555Y-101705253D01*
X104956561Y-101705253D01*
X105155184Y-101645002D01*
X105338237Y-101547158D01*
X105498683Y-101415483D01*
X105630358Y-101255037D01*
X105728202Y-101071984D01*
X105788453Y-100873361D01*
X105808798Y-100666800D01*
X105803186Y-100609820D01*
X105788454Y-100460245D01*
X105788453Y-100460243D01*
X105788453Y-100460239D01*
X105728202Y-100261616D01*
X105630358Y-100078563D01*
X105498683Y-99918117D01*
X105338237Y-99786442D01*
X105155184Y-99688598D01*
X104956561Y-99628347D01*
X104956560Y-99628346D01*
X104956554Y-99628345D01*
X104750003Y-99608002D01*
X104749997Y-99608002D01*
X104543445Y-99628345D01*
X104344815Y-99688598D01*
X104161762Y-99786442D01*
X104001317Y-99918117D01*
X103869642Y-100078562D01*
X103771798Y-100261615D01*
X103711545Y-100460245D01*
X103691202Y-100666797D01*
X103691202Y-100666802D01*
X102996040Y-100666802D01*
X102998207Y-81965800D01*
X110209720Y-81965800D01*
X110230333Y-82109168D01*
X110290503Y-82240921D01*
X110379139Y-82343214D01*
X110385355Y-82350387D01*
X110419297Y-82372200D01*
X110507204Y-82428694D01*
X110646179Y-82469500D01*
X110702430Y-82469500D01*
X110770551Y-82489502D01*
X110791525Y-82506405D01*
X112582395Y-84297275D01*
X112616421Y-84359587D01*
X112619300Y-84386370D01*
X112619300Y-107566078D01*
X112599298Y-107634199D01*
X112545642Y-107680692D01*
X112538603Y-107683906D01*
X112416754Y-107762213D01*
X112321903Y-107871678D01*
X112261737Y-108003424D01*
X112261733Y-108003432D01*
X112241120Y-108146800D01*
X112261733Y-108290168D01*
X112321903Y-108421921D01*
X112397286Y-108508919D01*
X112416755Y-108531387D01*
X112479308Y-108571587D01*
X112538604Y-108609694D01*
X112677579Y-108650500D01*
X112822421Y-108650500D01*
X112961396Y-108609694D01*
X113083246Y-108531386D01*
X113178097Y-108421921D01*
X113238267Y-108290168D01*
X113253100Y-108187000D01*
X121938120Y-108187000D01*
X121958733Y-108330368D01*
X122018903Y-108462121D01*
X122059458Y-108508925D01*
X122113755Y-108571587D01*
X122173051Y-108609694D01*
X122235604Y-108649894D01*
X122374579Y-108690700D01*
X122519421Y-108690700D01*
X122658396Y-108649894D01*
X122780246Y-108571586D01*
X122875097Y-108462121D01*
X122935267Y-108330368D01*
X122955880Y-108187000D01*
X122955879Y-108186998D01*
X122956830Y-108180389D01*
X122986323Y-108115808D01*
X122992439Y-108109239D01*
X124242678Y-106859000D01*
X124242688Y-106858993D01*
X124314627Y-106787054D01*
X124339681Y-106743659D01*
X124358164Y-106711646D01*
X124380700Y-106627538D01*
X124380700Y-105783000D01*
X127041120Y-105783000D01*
X127061733Y-105926368D01*
X127121903Y-106058121D01*
X127216755Y-106167587D01*
X127312458Y-106229091D01*
X127338604Y-106245894D01*
X127477579Y-106286700D01*
X127622421Y-106286700D01*
X127761396Y-106245894D01*
X127787541Y-106229091D01*
X127855657Y-106209090D01*
X127923778Y-106229091D01*
X127950884Y-106252578D01*
X128034855Y-106349487D01*
X128156699Y-106427791D01*
X128156704Y-106427794D01*
X128295679Y-106468600D01*
X128440521Y-106468600D01*
X128579496Y-106427794D01*
X128701346Y-106349486D01*
X128796197Y-106240021D01*
X128856367Y-106108268D01*
X128876980Y-105964900D01*
X128869010Y-105909470D01*
X128872020Y-105858928D01*
X128880700Y-105826538D01*
X128880700Y-105739463D01*
X128880700Y-102040435D01*
X128900702Y-101972314D01*
X128911476Y-101957923D01*
X128935589Y-101930095D01*
X129005541Y-101849365D01*
X129065711Y-101717612D01*
X129086324Y-101574244D01*
X129065711Y-101430876D01*
X129005541Y-101299123D01*
X128910690Y-101189658D01*
X128910689Y-101189657D01*
X128910688Y-101189656D01*
X128788844Y-101111352D01*
X128788841Y-101111350D01*
X128788840Y-101111350D01*
X128649865Y-101070544D01*
X128505023Y-101070544D01*
X128366050Y-101111349D01*
X128366043Y-101111352D01*
X128244199Y-101189656D01*
X128149347Y-101299122D01*
X128089177Y-101430876D01*
X128089175Y-101430882D01*
X128069788Y-101565725D01*
X128040295Y-101630306D01*
X127980569Y-101668689D01*
X127909574Y-101668689D01*
X127822422Y-101643100D01*
X127822421Y-101643100D01*
X127677579Y-101643100D01*
X127538606Y-101683905D01*
X127538599Y-101683908D01*
X127416755Y-101762212D01*
X127321903Y-101871678D01*
X127261733Y-102003431D01*
X127241120Y-102146800D01*
X127261733Y-102290168D01*
X127321903Y-102421921D01*
X127321906Y-102421925D01*
X127388524Y-102498807D01*
X127418018Y-102563387D01*
X127419300Y-102581319D01*
X127419300Y-105202278D01*
X127399298Y-105270399D01*
X127345642Y-105316892D01*
X127338603Y-105320106D01*
X127216754Y-105398413D01*
X127121903Y-105507878D01*
X127061733Y-105639631D01*
X127041120Y-105783000D01*
X124380700Y-105783000D01*
X124380700Y-96314441D01*
X124400702Y-96246320D01*
X124411476Y-96231928D01*
X124473696Y-96160122D01*
X124473697Y-96160121D01*
X124533867Y-96028368D01*
X124554480Y-95885000D01*
X124533867Y-95741632D01*
X124473697Y-95609879D01*
X124378846Y-95500414D01*
X124378845Y-95500413D01*
X124378844Y-95500412D01*
X124257000Y-95422108D01*
X124256997Y-95422106D01*
X124256996Y-95422106D01*
X124118021Y-95381300D01*
X123973179Y-95381300D01*
X123834206Y-95422105D01*
X123834199Y-95422108D01*
X123712355Y-95500412D01*
X123617503Y-95609878D01*
X123557333Y-95741631D01*
X123536720Y-95885000D01*
X123557333Y-96028368D01*
X123617503Y-96160121D01*
X123688525Y-96242086D01*
X123718018Y-96306665D01*
X123719300Y-96324597D01*
X123719300Y-106394830D01*
X123699298Y-106462951D01*
X123682395Y-106483925D01*
X122519925Y-107646395D01*
X122457613Y-107680421D01*
X122430830Y-107683300D01*
X122374579Y-107683300D01*
X122235606Y-107724105D01*
X122235599Y-107724108D01*
X122113755Y-107802412D01*
X122018903Y-107911878D01*
X121977092Y-108003432D01*
X121958733Y-108043632D01*
X121938120Y-108187000D01*
X113253100Y-108187000D01*
X113258880Y-108146800D01*
X113255538Y-108123556D01*
X113258548Y-108073012D01*
X113264885Y-108049364D01*
X113277192Y-108003432D01*
X113280701Y-107990337D01*
X113280701Y-107903263D01*
X113280701Y-107895546D01*
X113280700Y-107895528D01*
X113280700Y-84153664D01*
X113280700Y-84153662D01*
X113258164Y-84069554D01*
X113253733Y-84061880D01*
X113214627Y-83994145D01*
X113148666Y-83928184D01*
X113148643Y-83928163D01*
X111592680Y-82372200D01*
X128929520Y-82372200D01*
X128950133Y-82515568D01*
X129010303Y-82647321D01*
X129105155Y-82756787D01*
X129226999Y-82835091D01*
X129227004Y-82835094D01*
X129365979Y-82875900D01*
X129510821Y-82875900D01*
X129649796Y-82835094D01*
X129771646Y-82756786D01*
X129796762Y-82727800D01*
X130301120Y-82727800D01*
X130321733Y-82871168D01*
X130381903Y-83002921D01*
X130476755Y-83112387D01*
X130547368Y-83157767D01*
X130598604Y-83190694D01*
X130737579Y-83231500D01*
X130882421Y-83231500D01*
X131021396Y-83190694D01*
X131143246Y-83112386D01*
X131238097Y-83002921D01*
X131298267Y-82871168D01*
X131318880Y-82727800D01*
X131317877Y-82720826D01*
X131327979Y-82650553D01*
X131353496Y-82613799D01*
X131545359Y-82421938D01*
X131585342Y-82352686D01*
X131606038Y-82275445D01*
X131606038Y-82195479D01*
X131606038Y-81253341D01*
X131626040Y-81185220D01*
X131636809Y-81170833D01*
X131730435Y-81062783D01*
X131790605Y-80931030D01*
X131811218Y-80787662D01*
X131790605Y-80644294D01*
X131755214Y-80566800D01*
X159469336Y-80566800D01*
X159477627Y-80608483D01*
X159477629Y-80608490D01*
X159553011Y-80790477D01*
X159662448Y-80954262D01*
X159662453Y-80954268D01*
X159801731Y-81093546D01*
X159801737Y-81093551D01*
X159965522Y-81202988D01*
X160147505Y-81278368D01*
X160147510Y-81278370D01*
X160340706Y-81316799D01*
X160340710Y-81316800D01*
X160739200Y-81316800D01*
X160739200Y-80616800D01*
X161239200Y-80616800D01*
X161239200Y-81316800D01*
X161637690Y-81316800D01*
X161637693Y-81316799D01*
X161830889Y-81278370D01*
X161830894Y-81278368D01*
X162012877Y-81202988D01*
X162176662Y-81093551D01*
X162176668Y-81093546D01*
X162315946Y-80954268D01*
X162315951Y-80954262D01*
X162425388Y-80790477D01*
X162500770Y-80608490D01*
X162500772Y-80608483D01*
X162509063Y-80566800D01*
X161706188Y-80566800D01*
X161723405Y-80556860D01*
X161779260Y-80501005D01*
X161818756Y-80432596D01*
X161839200Y-80356296D01*
X161839200Y-80277304D01*
X161818756Y-80201004D01*
X161779260Y-80132595D01*
X161723405Y-80076740D01*
X161706188Y-80066800D01*
X162509063Y-80066800D01*
X162509063Y-80066799D01*
X162500772Y-80025116D01*
X162500770Y-80025109D01*
X162425388Y-79843122D01*
X162315951Y-79679337D01*
X162315946Y-79679331D01*
X162176668Y-79540053D01*
X162176662Y-79540048D01*
X162012877Y-79430610D01*
X162012873Y-79430608D01*
X161949708Y-79404444D01*
X161894427Y-79359896D01*
X161872007Y-79292532D01*
X161889566Y-79223741D01*
X161908837Y-79198936D01*
X161911940Y-79195833D01*
X161978201Y-79081067D01*
X162012500Y-78953061D01*
X162012500Y-78820539D01*
X161978201Y-78692533D01*
X161911940Y-78577767D01*
X161911938Y-78577765D01*
X161911934Y-78577760D01*
X161818239Y-78484065D01*
X161818229Y-78484057D01*
X161703471Y-78417801D01*
X161703468Y-78417800D01*
X161703467Y-78417799D01*
X161703465Y-78417798D01*
X161703464Y-78417798D01*
X161669164Y-78408607D01*
X161575461Y-78383500D01*
X161442939Y-78383500D01*
X161374343Y-78401880D01*
X161314935Y-78417798D01*
X161314928Y-78417801D01*
X161200170Y-78484057D01*
X161200160Y-78484065D01*
X161106465Y-78577760D01*
X161106457Y-78577770D01*
X161040201Y-78692528D01*
X161040199Y-78692533D01*
X161005900Y-78820539D01*
X161005900Y-78953061D01*
X161022714Y-79015812D01*
X161040198Y-79081064D01*
X161040201Y-79081071D01*
X161106457Y-79195829D01*
X161106465Y-79195839D01*
X161202295Y-79291669D01*
X161236321Y-79353981D01*
X161239200Y-79380764D01*
X161239200Y-80016800D01*
X160739200Y-80016800D01*
X160739200Y-79316800D01*
X160340706Y-79316800D01*
X160147510Y-79355229D01*
X160147505Y-79355231D01*
X159965522Y-79430611D01*
X159801737Y-79540048D01*
X159801731Y-79540053D01*
X159662453Y-79679331D01*
X159662448Y-79679337D01*
X159553011Y-79843122D01*
X159477629Y-80025109D01*
X159477627Y-80025116D01*
X159469336Y-80066799D01*
X159469337Y-80066800D01*
X160272212Y-80066800D01*
X160254995Y-80076740D01*
X160199140Y-80132595D01*
X160159644Y-80201004D01*
X160139200Y-80277304D01*
X160139200Y-80356296D01*
X160159644Y-80432596D01*
X160199140Y-80501005D01*
X160254995Y-80556860D01*
X160272212Y-80566800D01*
X159469336Y-80566800D01*
X131755214Y-80566800D01*
X131730435Y-80512541D01*
X131635584Y-80403076D01*
X131635583Y-80403075D01*
X131635582Y-80403074D01*
X131513738Y-80324770D01*
X131513735Y-80324768D01*
X131513734Y-80324768D01*
X131374759Y-80283962D01*
X131229917Y-80283962D01*
X131090944Y-80324767D01*
X131090937Y-80324770D01*
X130969093Y-80403074D01*
X130874241Y-80512540D01*
X130835964Y-80596356D01*
X130814071Y-80644294D01*
X130793458Y-80787662D01*
X130814071Y-80931030D01*
X130874241Y-81062783D01*
X130967863Y-81170830D01*
X130997356Y-81235410D01*
X130998638Y-81253341D01*
X130998638Y-82057473D01*
X130978636Y-82125594D01*
X130961733Y-82146568D01*
X130921106Y-82187195D01*
X130858794Y-82221221D01*
X130832011Y-82224100D01*
X130737579Y-82224100D01*
X130598606Y-82264905D01*
X130598599Y-82264908D01*
X130476755Y-82343212D01*
X130381903Y-82452678D01*
X130321733Y-82584431D01*
X130301120Y-82727800D01*
X129796762Y-82727800D01*
X129866497Y-82647321D01*
X129926667Y-82515568D01*
X129947280Y-82372200D01*
X129946277Y-82365226D01*
X129956379Y-82294953D01*
X129981896Y-82258199D01*
X130097100Y-82142994D01*
X130097110Y-82142987D01*
X130164015Y-82076082D01*
X130164021Y-82076076D01*
X130204004Y-82006824D01*
X130224700Y-81929583D01*
X130224700Y-79866079D01*
X130244702Y-79797958D01*
X130255471Y-79783571D01*
X130349097Y-79675521D01*
X130409267Y-79543768D01*
X130429880Y-79400400D01*
X130409267Y-79257032D01*
X130349097Y-79125279D01*
X130254246Y-79015814D01*
X130254245Y-79015813D01*
X130254244Y-79015812D01*
X130132400Y-78937508D01*
X130132397Y-78937506D01*
X130132396Y-78937506D01*
X129993421Y-78896700D01*
X129848579Y-78896700D01*
X129709606Y-78937505D01*
X129709599Y-78937508D01*
X129587755Y-79015812D01*
X129492903Y-79125278D01*
X129432733Y-79257031D01*
X129414943Y-79380764D01*
X129412120Y-79400400D01*
X129432733Y-79543768D01*
X129492903Y-79675521D01*
X129586525Y-79783568D01*
X129616018Y-79848148D01*
X129617300Y-79866079D01*
X129617300Y-81711611D01*
X129597298Y-81779732D01*
X129580395Y-81800706D01*
X129549506Y-81831595D01*
X129487194Y-81865621D01*
X129460411Y-81868500D01*
X129365979Y-81868500D01*
X129227006Y-81909305D01*
X129226999Y-81909308D01*
X129105155Y-81987612D01*
X129010303Y-82097078D01*
X128950133Y-82228831D01*
X128929520Y-82372200D01*
X111592680Y-82372200D01*
X111264052Y-82043572D01*
X111230026Y-81981260D01*
X111228429Y-81972408D01*
X111227479Y-81965803D01*
X111227480Y-81965800D01*
X111206867Y-81822432D01*
X111146697Y-81690679D01*
X111051846Y-81581214D01*
X111051845Y-81581213D01*
X111051844Y-81581212D01*
X110930000Y-81502908D01*
X110929997Y-81502906D01*
X110929996Y-81502906D01*
X110791021Y-81462100D01*
X110646179Y-81462100D01*
X110507206Y-81502905D01*
X110507199Y-81502908D01*
X110385355Y-81581212D01*
X110290503Y-81690678D01*
X110230333Y-81822431D01*
X110217842Y-81909308D01*
X110209720Y-81965800D01*
X102998207Y-81965800D01*
X102999663Y-69406887D01*
X103019672Y-69338773D01*
X103073333Y-69292286D01*
X103143608Y-69282191D01*
X103208185Y-69311691D01*
X103236250Y-69346521D01*
X103352244Y-69558948D01*
X103519720Y-69782670D01*
X103519721Y-69782671D01*
X103519729Y-69782680D01*
X103717319Y-69980270D01*
X103717328Y-69980278D01*
X103717330Y-69980280D01*
X103941052Y-70147756D01*
X104186330Y-70281688D01*
X104448173Y-70379350D01*
X104721249Y-70438754D01*
X105000000Y-70458691D01*
X105278751Y-70438754D01*
X105551827Y-70379350D01*
X105813670Y-70281688D01*
X106058948Y-70147756D01*
X106282670Y-69980280D01*
X106480280Y-69782670D01*
X106647756Y-69558948D01*
X106763413Y-69347137D01*
X106813614Y-69296937D01*
X106882989Y-69281845D01*
X106949509Y-69306656D01*
X106992056Y-69363491D01*
X107000000Y-69407524D01*
X107000000Y-71250001D01*
X107011014Y-71261015D01*
X107041621Y-71270002D01*
X107088114Y-71323658D01*
X107099500Y-71376000D01*
X107099500Y-76300106D01*
X107099505Y-76300187D01*
X107099505Y-76349913D01*
X107108478Y-76406565D01*
X107133989Y-76567645D01*
X107202110Y-76777301D01*
X107302183Y-76973708D01*
X107302186Y-76973712D01*
X107302187Y-76973714D01*
X107302190Y-76973718D01*
X107431755Y-77152051D01*
X107431757Y-77152053D01*
X107431760Y-77152057D01*
X107587636Y-77307935D01*
X107765978Y-77437509D01*
X107962395Y-77537588D01*
X108172049Y-77605709D01*
X108389778Y-77640194D01*
X108389785Y-77640194D01*
X108394110Y-77640879D01*
X108458264Y-77671291D01*
X108480663Y-77707264D01*
X108500399Y-77727000D01*
X108500400Y-77727000D01*
X126500401Y-77727000D01*
X126516281Y-77711119D01*
X126520402Y-77697087D01*
X126574058Y-77650594D01*
X126606689Y-77640759D01*
X126610218Y-77640200D01*
X126610222Y-77640200D01*
X126827953Y-77605715D01*
X127037608Y-77537594D01*
X127234025Y-77437514D01*
X127412368Y-77307939D01*
X127568245Y-77152061D01*
X127697819Y-76973717D01*
X127797897Y-76777299D01*
X127866017Y-76567643D01*
X127900501Y-76349912D01*
X127900500Y-76239690D01*
X127900500Y-76226046D01*
X127900500Y-74968100D01*
X150481420Y-74968100D01*
X150502033Y-75111468D01*
X150562203Y-75243221D01*
X150657055Y-75352687D01*
X150766818Y-75423227D01*
X150778904Y-75430994D01*
X150917879Y-75471800D01*
X150974129Y-75471800D01*
X151042250Y-75491802D01*
X151063224Y-75508704D01*
X151917546Y-76363027D01*
X151917547Y-76363028D01*
X151917549Y-76363029D01*
X151934987Y-76373097D01*
X151934989Y-76373097D01*
X151992954Y-76406564D01*
X152015491Y-76412602D01*
X152077063Y-76429101D01*
X152077064Y-76429101D01*
X152171856Y-76429101D01*
X152171872Y-76429100D01*
X161705202Y-76429100D01*
X161773323Y-76449102D01*
X161773324Y-76449103D01*
X161789800Y-76459692D01*
X161789802Y-76459692D01*
X161789804Y-76459694D01*
X161928779Y-76500500D01*
X162073621Y-76500500D01*
X162212596Y-76459694D01*
X162334446Y-76381386D01*
X162429297Y-76271921D01*
X162489467Y-76140168D01*
X162510080Y-75996800D01*
X162489467Y-75853432D01*
X162474646Y-75820980D01*
X162464542Y-75750707D01*
X162494035Y-75686126D01*
X162521135Y-75662643D01*
X162588446Y-75619386D01*
X162683297Y-75509921D01*
X162743467Y-75378168D01*
X162764080Y-75234800D01*
X162743467Y-75091432D01*
X162683297Y-74959679D01*
X162588446Y-74850214D01*
X162588445Y-74850213D01*
X162588444Y-74850212D01*
X162466600Y-74771908D01*
X162466597Y-74771906D01*
X162466596Y-74771906D01*
X162327621Y-74731100D01*
X162182779Y-74731100D01*
X162043806Y-74771905D01*
X162043799Y-74771908D01*
X161987799Y-74807898D01*
X161919679Y-74827900D01*
X152930996Y-74827900D01*
X152862875Y-74807898D01*
X152816382Y-74754242D01*
X152806279Y-74719832D01*
X152786668Y-74583438D01*
X152786667Y-74583437D01*
X152786667Y-74583432D01*
X152726497Y-74451679D01*
X152631646Y-74342214D01*
X152631645Y-74342213D01*
X152631644Y-74342212D01*
X152509800Y-74263908D01*
X152509797Y-74263906D01*
X152509796Y-74263906D01*
X152370821Y-74223100D01*
X152225979Y-74223100D01*
X152087006Y-74263905D01*
X152086999Y-74263908D01*
X151965155Y-74342212D01*
X151870303Y-74451678D01*
X151810133Y-74583431D01*
X151789520Y-74726800D01*
X151810133Y-74870168D01*
X151870303Y-75001921D01*
X151965155Y-75111387D01*
X152086999Y-75189691D01*
X152087004Y-75189694D01*
X152225979Y-75230500D01*
X152282230Y-75230500D01*
X152350351Y-75250502D01*
X152371325Y-75267405D01*
X152461163Y-75357243D01*
X152461184Y-75357266D01*
X152527145Y-75423227D01*
X152594880Y-75462333D01*
X152602554Y-75466764D01*
X152686662Y-75489300D01*
X152773737Y-75489300D01*
X161498559Y-75489300D01*
X161566680Y-75509302D01*
X161613173Y-75562958D01*
X161623277Y-75633232D01*
X161593785Y-75697809D01*
X161573103Y-75721679D01*
X161573101Y-75721681D01*
X161570910Y-75724211D01*
X161511184Y-75762596D01*
X161475684Y-75767700D01*
X152309771Y-75767700D01*
X152241650Y-75747698D01*
X152220676Y-75730795D01*
X151535752Y-75045871D01*
X151501726Y-74983559D01*
X151500129Y-74974707D01*
X151499179Y-74968103D01*
X151499180Y-74968100D01*
X151478567Y-74824732D01*
X151418397Y-74692979D01*
X151323546Y-74583514D01*
X151323545Y-74583513D01*
X151323544Y-74583512D01*
X151201700Y-74505208D01*
X151201697Y-74505206D01*
X151201696Y-74505206D01*
X151062721Y-74464400D01*
X150917879Y-74464400D01*
X150778906Y-74505205D01*
X150778899Y-74505208D01*
X150657055Y-74583512D01*
X150562203Y-74692978D01*
X150502033Y-74824731D01*
X150481420Y-74968100D01*
X127900500Y-74968100D01*
X127900500Y-71926800D01*
X159469336Y-71926800D01*
X159477627Y-71968483D01*
X159477629Y-71968490D01*
X159553011Y-72150477D01*
X159662448Y-72314262D01*
X159662453Y-72314268D01*
X159801731Y-72453546D01*
X159801737Y-72453551D01*
X159965522Y-72562988D01*
X160147505Y-72638368D01*
X160147510Y-72638370D01*
X160340706Y-72676799D01*
X160340710Y-72676800D01*
X160739200Y-72676800D01*
X160739200Y-71976800D01*
X161239200Y-71976800D01*
X161239200Y-72612836D01*
X161219198Y-72680957D01*
X161202295Y-72701931D01*
X161106465Y-72797760D01*
X161106457Y-72797770D01*
X161040201Y-72912528D01*
X161040199Y-72912533D01*
X161005900Y-73040539D01*
X161005900Y-73173061D01*
X161031007Y-73266764D01*
X161040198Y-73301064D01*
X161040201Y-73301071D01*
X161106457Y-73415829D01*
X161106465Y-73415839D01*
X161200160Y-73509534D01*
X161200165Y-73509538D01*
X161200167Y-73509540D01*
X161314933Y-73575801D01*
X161442939Y-73610100D01*
X161442941Y-73610100D01*
X161575459Y-73610100D01*
X161575461Y-73610100D01*
X161703467Y-73575801D01*
X161818233Y-73509540D01*
X161911940Y-73415833D01*
X161978201Y-73301067D01*
X162012500Y-73173061D01*
X162012500Y-73040539D01*
X161978201Y-72912533D01*
X161911940Y-72797767D01*
X161911938Y-72797765D01*
X161911934Y-72797760D01*
X161908832Y-72794658D01*
X161907050Y-72791395D01*
X161906912Y-72791215D01*
X161906940Y-72791193D01*
X161874806Y-72732346D01*
X161879871Y-72661531D01*
X161922418Y-72604695D01*
X161949709Y-72589154D01*
X162012878Y-72562988D01*
X162176662Y-72453551D01*
X162176668Y-72453546D01*
X162315946Y-72314268D01*
X162315951Y-72314262D01*
X162425388Y-72150477D01*
X162500770Y-71968490D01*
X162500772Y-71968483D01*
X162509063Y-71926800D01*
X161706188Y-71926800D01*
X161723405Y-71916860D01*
X161779260Y-71861005D01*
X161818756Y-71792596D01*
X161839200Y-71716296D01*
X161839200Y-71637304D01*
X161818756Y-71561004D01*
X161779260Y-71492595D01*
X161723405Y-71436740D01*
X161706188Y-71426800D01*
X162509063Y-71426800D01*
X162509063Y-71426799D01*
X162500772Y-71385116D01*
X162500770Y-71385109D01*
X162425388Y-71203122D01*
X162315951Y-71039337D01*
X162315946Y-71039331D01*
X162176668Y-70900053D01*
X162176662Y-70900048D01*
X162012877Y-70790611D01*
X161830894Y-70715231D01*
X161830889Y-70715229D01*
X161637693Y-70676800D01*
X161239200Y-70676800D01*
X161239200Y-71376800D01*
X160739200Y-71376800D01*
X160739200Y-70676800D01*
X160340706Y-70676800D01*
X160147510Y-70715229D01*
X160147505Y-70715231D01*
X159965522Y-70790611D01*
X159801737Y-70900048D01*
X159801731Y-70900053D01*
X159662453Y-71039331D01*
X159662448Y-71039337D01*
X159553011Y-71203122D01*
X159477629Y-71385109D01*
X159477627Y-71385116D01*
X159469336Y-71426799D01*
X159469337Y-71426800D01*
X160272212Y-71426800D01*
X160254995Y-71436740D01*
X160199140Y-71492595D01*
X160159644Y-71561004D01*
X160139200Y-71637304D01*
X160139200Y-71716296D01*
X160159644Y-71792596D01*
X160199140Y-71861005D01*
X160254995Y-71916860D01*
X160272212Y-71926800D01*
X159469336Y-71926800D01*
X127900500Y-71926800D01*
X127900500Y-71376000D01*
X127920502Y-71307879D01*
X127974158Y-71261386D01*
X127992634Y-71257366D01*
X128000000Y-71250001D01*
X128000000Y-66712319D01*
X128019309Y-66645289D01*
X128023737Y-66638241D01*
X128041331Y-66616179D01*
X128116182Y-66541327D01*
X128138234Y-66523741D01*
X128145291Y-66519307D01*
X128212318Y-66500000D01*
X163092476Y-66500000D01*
X163160597Y-66520002D01*
G37*
%TD.AperFunction*%
%TD*%
M02*
