M48
; DRILL file {KiCad 8.0.0} date 2024-06-17T16:53:15+0200
; FORMAT={-:-/ absolute / inch / decimal}
; #@! TF.CreationDate,2024-06-17T16:53:15+02:00
; #@! TF.GenerationSoftware,Kicad,Pcbnew,8.0.0
; #@! TF.FileFunction,Plated,1,2,PTH
FMAT,2
INCH
; #@! TA.AperFunction,Plated,PTH,ViaDrill
T1C0.0118
; #@! TA.AperFunction,Plated,PTH,ComponentDrill
T2C0.0236
; #@! TA.AperFunction,Plated,PTH,ComponentDrill
T3C0.0354
; #@! TA.AperFunction,Plated,PTH,ComponentDrill
T4C0.0394
; #@! TA.AperFunction,Plated,PTH,ComponentDrill
T5C0.0630
; #@! TA.AperFunction,Plated,PTH,ComponentDrill
T6C0.0866
%
G90
G05
T1
X4.1339Y-2.8248
X4.1339Y-4.7244
X4.289Y-4.15
X4.311Y-4.8622
X4.343Y-3.871
X4.3476Y-4.584
X4.359Y-3.227
X4.3701Y-3.1004
X4.372Y-3.776
X4.397Y-3.718
X4.445Y-4.167
X4.633Y-4.156
X4.656Y-4.584
X4.789Y-3.286
X4.793Y-3.203
X4.794Y-3.106
X4.823Y-4.401
X4.869Y-4.169
X4.8837Y-3.775
X4.9Y-3.496
X4.901Y-4.631
X4.915Y-3.882
X4.966Y-4.158
X5.041Y-3.18
X5.0492Y-2.8839
X5.0492Y-3.9665
X5.059Y-2.981
X5.0591Y-3.5039
X5.085Y-3.303
X5.0856Y-3.2581
X5.086Y-2.942
X5.086Y-3.2206
X5.1088Y-2.8858
X5.139Y-3.134
X5.177Y-3.14
X5.382Y-4.731
X5.391Y-3.957
X5.433Y-3.098
X5.457Y-4.433
X5.458Y-3.689
X5.465Y-4.723
X5.4724Y-2.7559
X5.523Y-3.232
X5.543Y-2.923
X5.561Y-4.0945
X5.5685Y-2.8421
X5.5685Y-3.1271
X5.569Y-4.279
X5.602Y-4.585
X5.605Y-4.834
X5.6251Y-4.0945
X5.686Y-4.033
X5.76Y-4.479
X5.768Y-2.9573
X5.77Y-3.677
X5.78Y-4.692
X5.8146Y-2.9573
X5.82Y-3.432
X5.828Y-3.955
X6.006Y-3.178
X6.0138Y-4.3898
X6.025Y-2.786
X6.0335Y-3.75
X6.0433Y-3.9173
X6.079Y-2.892
X6.0925Y-3.2972
X6.2205Y-2.8543
X6.2303Y-3.1496
X6.3484Y-4.7441
X6.378Y-2.992
X6.388Y-2.962
X6.3935Y-2.8621
X6.4567Y-4.7244
X6.4585Y-3.0721
T3
X6.2844Y-3.3562
X6.2844Y-3.4562
T4
X4.5184Y-4.7328
X4.5184Y-4.8328
X4.6184Y-4.7328
X4.6184Y-4.8328
X4.7184Y-4.7328
X4.7184Y-4.8328
T5
X6.1122Y-3.7106
X6.1122Y-4.2717
T6
X4.1339Y-2.6969
X4.1339Y-4.8622
X6.4567Y-2.6969
X6.4567Y-4.8622
T2
G00X6.3165Y-2.8219
M15
G01X6.3598Y-2.8219
M16
G05
G00X6.3165Y-3.1621
M15
G01X6.3598Y-3.1621
M16
G05
G00X6.4878Y-2.8219
M15
G01X6.5193Y-2.8219
M16
G05
G00X6.4878Y-3.1621
M15
G01X6.5193Y-3.1621
M16
G05
T4
G00X6.3189Y-3.8976
M15
G01X6.3189Y-3.8386
M16
G05
G00X6.3189Y-4.4488
M15
G01X6.3189Y-4.3898
M16
G05
M30
