%TF.GenerationSoftware,KiCad,Pcbnew,8.0.0*%
%TF.CreationDate,2024-06-17T16:53:13+02:00*%
%TF.ProjectId,Lucaudio_esp32,4c756361-7564-4696-9f5f-65737033322e,rev?*%
%TF.SameCoordinates,Original*%
%TF.FileFunction,Profile,NP*%
%FSLAX46Y46*%
G04 Gerber Fmt 4.6, Leading zero omitted, Abs format (unit mm)*
G04 Created by KiCad (PCBNEW 8.0.0) date 2024-06-17 16:53:13*
%MOMM*%
%LPD*%
G01*
G04 APERTURE LIST*
%TA.AperFunction,Profile*%
%ADD10C,0.050000*%
%TD*%
G04 APERTURE END LIST*
D10*
X103500000Y-66000000D02*
X106500000Y-66000000D01*
X103500000Y-126000000D02*
G75*
G02*
X102500000Y-125000000I0J1000000D01*
G01*
X128500000Y-66000000D02*
X165500000Y-66000000D01*
X102500000Y-67000000D02*
G75*
G02*
X103500000Y-66000000I1000000J0D01*
G01*
X108500000Y-70500000D02*
X126500000Y-70500000D01*
X102500000Y-125000000D02*
X102500000Y-67000000D01*
X106500000Y-66000000D02*
G75*
G02*
X107500000Y-67000000I0J-1000000D01*
G01*
X107500000Y-67000000D02*
X107500000Y-69500000D01*
X165500000Y-126000000D02*
X103500000Y-126000000D01*
X108500000Y-70500000D02*
G75*
G02*
X107500000Y-69500000I0J1000000D01*
G01*
X127500000Y-67000000D02*
G75*
G02*
X128500000Y-66000000I1000000J0D01*
G01*
X127500000Y-69500000D02*
X127500000Y-67000000D01*
X127500000Y-69500000D02*
G75*
G02*
X126500000Y-70500000I-1000000J0D01*
G01*
X165500000Y-66000000D02*
G75*
G02*
X166500000Y-67000000I0J-1000000D01*
G01*
X166500000Y-125000000D02*
G75*
G02*
X165500000Y-126000000I-1000000J0D01*
G01*
X166500000Y-67000000D02*
X166500000Y-125000000D01*
%TO.C,J3*%
X157750000Y-94750000D02*
X161250000Y-94750000D01*
X161250000Y-92250000D01*
X157750000Y-92250000D01*
X157750000Y-94750000D01*
X157750000Y-118250000D02*
X161250000Y-118250000D01*
X161250000Y-115750000D01*
X157750000Y-115750000D01*
X157750000Y-118250000D01*
%TD*%
M02*
