%TF.GenerationSoftware,KiCad,Pcbnew,8.0.0*%
%TF.CreationDate,2024-10-16T14:26:18+02:00*%
%TF.ProjectId,LucaudioESP32_V1_RevC,4c756361-7564-4696-9f45-535033325f56,rev?*%
%TF.SameCoordinates,Original*%
%TF.FileFunction,Legend,Bot*%
%TF.FilePolarity,Positive*%
%FSLAX46Y46*%
G04 Gerber Fmt 4.6, Leading zero omitted, Abs format (unit mm)*
G04 Created by KiCad (PCBNEW 8.0.0) date 2024-10-16 14:26:18*
%MOMM*%
%LPD*%
G01*
G04 APERTURE LIST*
%ADD10C,0.100000*%
%ADD11C,0.150000*%
%ADD12C,0.120000*%
G04 APERTURE END LIST*
D10*
X115821330Y-89287290D02*
X115821330Y-90001575D01*
X115821330Y-90001575D02*
X115868949Y-90144432D01*
X115868949Y-90144432D02*
X115964187Y-90239671D01*
X115964187Y-90239671D02*
X116107044Y-90287290D01*
X116107044Y-90287290D02*
X116202282Y-90287290D01*
X115487996Y-89620623D02*
X115107044Y-89620623D01*
X115345139Y-89287290D02*
X115345139Y-90144432D01*
X115345139Y-90144432D02*
X115297520Y-90239671D01*
X115297520Y-90239671D02*
X115202282Y-90287290D01*
X115202282Y-90287290D02*
X115107044Y-90287290D01*
X114345139Y-90287290D02*
X114345139Y-89763480D01*
X114345139Y-89763480D02*
X114392758Y-89668242D01*
X114392758Y-89668242D02*
X114487996Y-89620623D01*
X114487996Y-89620623D02*
X114678472Y-89620623D01*
X114678472Y-89620623D02*
X114773710Y-89668242D01*
X114345139Y-90239671D02*
X114440377Y-90287290D01*
X114440377Y-90287290D02*
X114678472Y-90287290D01*
X114678472Y-90287290D02*
X114773710Y-90239671D01*
X114773710Y-90239671D02*
X114821329Y-90144432D01*
X114821329Y-90144432D02*
X114821329Y-90049194D01*
X114821329Y-90049194D02*
X114773710Y-89953956D01*
X114773710Y-89953956D02*
X114678472Y-89906337D01*
X114678472Y-89906337D02*
X114440377Y-89906337D01*
X114440377Y-89906337D02*
X114345139Y-89858718D01*
X113440377Y-89620623D02*
X113440377Y-90430147D01*
X113440377Y-90430147D02*
X113487996Y-90525385D01*
X113487996Y-90525385D02*
X113535615Y-90573004D01*
X113535615Y-90573004D02*
X113630853Y-90620623D01*
X113630853Y-90620623D02*
X113773710Y-90620623D01*
X113773710Y-90620623D02*
X113868948Y-90573004D01*
X113440377Y-90239671D02*
X113535615Y-90287290D01*
X113535615Y-90287290D02*
X113726091Y-90287290D01*
X113726091Y-90287290D02*
X113821329Y-90239671D01*
X113821329Y-90239671D02*
X113868948Y-90192051D01*
X113868948Y-90192051D02*
X113916567Y-90096813D01*
X113916567Y-90096813D02*
X113916567Y-89811099D01*
X113916567Y-89811099D02*
X113868948Y-89715861D01*
X113868948Y-89715861D02*
X113821329Y-89668242D01*
X113821329Y-89668242D02*
X113726091Y-89620623D01*
X113726091Y-89620623D02*
X113535615Y-89620623D01*
X113535615Y-89620623D02*
X113440377Y-89668242D01*
D11*
X94232857Y-79484819D02*
X94566190Y-79008628D01*
X94804285Y-79484819D02*
X94804285Y-78484819D01*
X94804285Y-78484819D02*
X94423333Y-78484819D01*
X94423333Y-78484819D02*
X94328095Y-78532438D01*
X94328095Y-78532438D02*
X94280476Y-78580057D01*
X94280476Y-78580057D02*
X94232857Y-78675295D01*
X94232857Y-78675295D02*
X94232857Y-78818152D01*
X94232857Y-78818152D02*
X94280476Y-78913390D01*
X94280476Y-78913390D02*
X94328095Y-78961009D01*
X94328095Y-78961009D02*
X94423333Y-79008628D01*
X94423333Y-79008628D02*
X94804285Y-79008628D01*
X93280476Y-79484819D02*
X93851904Y-79484819D01*
X93566190Y-79484819D02*
X93566190Y-78484819D01*
X93566190Y-78484819D02*
X93661428Y-78627676D01*
X93661428Y-78627676D02*
X93756666Y-78722914D01*
X93756666Y-78722914D02*
X93851904Y-78770533D01*
X92423333Y-78818152D02*
X92423333Y-79484819D01*
X92661428Y-78437200D02*
X92899523Y-79151485D01*
X92899523Y-79151485D02*
X92280476Y-79151485D01*
X92450857Y-76944819D02*
X92784190Y-76468628D01*
X93022285Y-76944819D02*
X93022285Y-75944819D01*
X93022285Y-75944819D02*
X92641333Y-75944819D01*
X92641333Y-75944819D02*
X92546095Y-75992438D01*
X92546095Y-75992438D02*
X92498476Y-76040057D01*
X92498476Y-76040057D02*
X92450857Y-76135295D01*
X92450857Y-76135295D02*
X92450857Y-76278152D01*
X92450857Y-76278152D02*
X92498476Y-76373390D01*
X92498476Y-76373390D02*
X92546095Y-76421009D01*
X92546095Y-76421009D02*
X92641333Y-76468628D01*
X92641333Y-76468628D02*
X93022285Y-76468628D01*
X91498476Y-76944819D02*
X92069904Y-76944819D01*
X91784190Y-76944819D02*
X91784190Y-75944819D01*
X91784190Y-75944819D02*
X91879428Y-76087676D01*
X91879428Y-76087676D02*
X91974666Y-76182914D01*
X91974666Y-76182914D02*
X92069904Y-76230533D01*
X90879428Y-75944819D02*
X90784190Y-75944819D01*
X90784190Y-75944819D02*
X90688952Y-75992438D01*
X90688952Y-75992438D02*
X90641333Y-76040057D01*
X90641333Y-76040057D02*
X90593714Y-76135295D01*
X90593714Y-76135295D02*
X90546095Y-76325771D01*
X90546095Y-76325771D02*
X90546095Y-76563866D01*
X90546095Y-76563866D02*
X90593714Y-76754342D01*
X90593714Y-76754342D02*
X90641333Y-76849580D01*
X90641333Y-76849580D02*
X90688952Y-76897200D01*
X90688952Y-76897200D02*
X90784190Y-76944819D01*
X90784190Y-76944819D02*
X90879428Y-76944819D01*
X90879428Y-76944819D02*
X90974666Y-76897200D01*
X90974666Y-76897200D02*
X91022285Y-76849580D01*
X91022285Y-76849580D02*
X91069904Y-76754342D01*
X91069904Y-76754342D02*
X91117523Y-76563866D01*
X91117523Y-76563866D02*
X91117523Y-76325771D01*
X91117523Y-76325771D02*
X91069904Y-76135295D01*
X91069904Y-76135295D02*
X91022285Y-76040057D01*
X91022285Y-76040057D02*
X90974666Y-75992438D01*
X90974666Y-75992438D02*
X90879428Y-75944819D01*
X90039580Y-98857142D02*
X90087200Y-98809523D01*
X90087200Y-98809523D02*
X90134819Y-98666666D01*
X90134819Y-98666666D02*
X90134819Y-98571428D01*
X90134819Y-98571428D02*
X90087200Y-98428571D01*
X90087200Y-98428571D02*
X89991961Y-98333333D01*
X89991961Y-98333333D02*
X89896723Y-98285714D01*
X89896723Y-98285714D02*
X89706247Y-98238095D01*
X89706247Y-98238095D02*
X89563390Y-98238095D01*
X89563390Y-98238095D02*
X89372914Y-98285714D01*
X89372914Y-98285714D02*
X89277676Y-98333333D01*
X89277676Y-98333333D02*
X89182438Y-98428571D01*
X89182438Y-98428571D02*
X89134819Y-98571428D01*
X89134819Y-98571428D02*
X89134819Y-98666666D01*
X89134819Y-98666666D02*
X89182438Y-98809523D01*
X89182438Y-98809523D02*
X89230057Y-98857142D01*
X89134819Y-99190476D02*
X89134819Y-99809523D01*
X89134819Y-99809523D02*
X89515771Y-99476190D01*
X89515771Y-99476190D02*
X89515771Y-99619047D01*
X89515771Y-99619047D02*
X89563390Y-99714285D01*
X89563390Y-99714285D02*
X89611009Y-99761904D01*
X89611009Y-99761904D02*
X89706247Y-99809523D01*
X89706247Y-99809523D02*
X89944342Y-99809523D01*
X89944342Y-99809523D02*
X90039580Y-99761904D01*
X90039580Y-99761904D02*
X90087200Y-99714285D01*
X90087200Y-99714285D02*
X90134819Y-99619047D01*
X90134819Y-99619047D02*
X90134819Y-99333333D01*
X90134819Y-99333333D02*
X90087200Y-99238095D01*
X90087200Y-99238095D02*
X90039580Y-99190476D01*
X89134819Y-100142857D02*
X89134819Y-100761904D01*
X89134819Y-100761904D02*
X89515771Y-100428571D01*
X89515771Y-100428571D02*
X89515771Y-100571428D01*
X89515771Y-100571428D02*
X89563390Y-100666666D01*
X89563390Y-100666666D02*
X89611009Y-100714285D01*
X89611009Y-100714285D02*
X89706247Y-100761904D01*
X89706247Y-100761904D02*
X89944342Y-100761904D01*
X89944342Y-100761904D02*
X90039580Y-100714285D01*
X90039580Y-100714285D02*
X90087200Y-100666666D01*
X90087200Y-100666666D02*
X90134819Y-100571428D01*
X90134819Y-100571428D02*
X90134819Y-100285714D01*
X90134819Y-100285714D02*
X90087200Y-100190476D01*
X90087200Y-100190476D02*
X90039580Y-100142857D01*
X92450857Y-82147819D02*
X92784190Y-81671628D01*
X93022285Y-82147819D02*
X93022285Y-81147819D01*
X93022285Y-81147819D02*
X92641333Y-81147819D01*
X92641333Y-81147819D02*
X92546095Y-81195438D01*
X92546095Y-81195438D02*
X92498476Y-81243057D01*
X92498476Y-81243057D02*
X92450857Y-81338295D01*
X92450857Y-81338295D02*
X92450857Y-81481152D01*
X92450857Y-81481152D02*
X92498476Y-81576390D01*
X92498476Y-81576390D02*
X92546095Y-81624009D01*
X92546095Y-81624009D02*
X92641333Y-81671628D01*
X92641333Y-81671628D02*
X93022285Y-81671628D01*
X91498476Y-82147819D02*
X92069904Y-82147819D01*
X91784190Y-82147819D02*
X91784190Y-81147819D01*
X91784190Y-81147819D02*
X91879428Y-81290676D01*
X91879428Y-81290676D02*
X91974666Y-81385914D01*
X91974666Y-81385914D02*
X92069904Y-81433533D01*
X91165142Y-81147819D02*
X90546095Y-81147819D01*
X90546095Y-81147819D02*
X90879428Y-81528771D01*
X90879428Y-81528771D02*
X90736571Y-81528771D01*
X90736571Y-81528771D02*
X90641333Y-81576390D01*
X90641333Y-81576390D02*
X90593714Y-81624009D01*
X90593714Y-81624009D02*
X90546095Y-81719247D01*
X90546095Y-81719247D02*
X90546095Y-81957342D01*
X90546095Y-81957342D02*
X90593714Y-82052580D01*
X90593714Y-82052580D02*
X90641333Y-82100200D01*
X90641333Y-82100200D02*
X90736571Y-82147819D01*
X90736571Y-82147819D02*
X91022285Y-82147819D01*
X91022285Y-82147819D02*
X91117523Y-82100200D01*
X91117523Y-82100200D02*
X91165142Y-82052580D01*
X90109580Y-103607142D02*
X90157200Y-103559523D01*
X90157200Y-103559523D02*
X90204819Y-103416666D01*
X90204819Y-103416666D02*
X90204819Y-103321428D01*
X90204819Y-103321428D02*
X90157200Y-103178571D01*
X90157200Y-103178571D02*
X90061961Y-103083333D01*
X90061961Y-103083333D02*
X89966723Y-103035714D01*
X89966723Y-103035714D02*
X89776247Y-102988095D01*
X89776247Y-102988095D02*
X89633390Y-102988095D01*
X89633390Y-102988095D02*
X89442914Y-103035714D01*
X89442914Y-103035714D02*
X89347676Y-103083333D01*
X89347676Y-103083333D02*
X89252438Y-103178571D01*
X89252438Y-103178571D02*
X89204819Y-103321428D01*
X89204819Y-103321428D02*
X89204819Y-103416666D01*
X89204819Y-103416666D02*
X89252438Y-103559523D01*
X89252438Y-103559523D02*
X89300057Y-103607142D01*
X89204819Y-103940476D02*
X89204819Y-104559523D01*
X89204819Y-104559523D02*
X89585771Y-104226190D01*
X89585771Y-104226190D02*
X89585771Y-104369047D01*
X89585771Y-104369047D02*
X89633390Y-104464285D01*
X89633390Y-104464285D02*
X89681009Y-104511904D01*
X89681009Y-104511904D02*
X89776247Y-104559523D01*
X89776247Y-104559523D02*
X90014342Y-104559523D01*
X90014342Y-104559523D02*
X90109580Y-104511904D01*
X90109580Y-104511904D02*
X90157200Y-104464285D01*
X90157200Y-104464285D02*
X90204819Y-104369047D01*
X90204819Y-104369047D02*
X90204819Y-104083333D01*
X90204819Y-104083333D02*
X90157200Y-103988095D01*
X90157200Y-103988095D02*
X90109580Y-103940476D01*
X89300057Y-104940476D02*
X89252438Y-104988095D01*
X89252438Y-104988095D02*
X89204819Y-105083333D01*
X89204819Y-105083333D02*
X89204819Y-105321428D01*
X89204819Y-105321428D02*
X89252438Y-105416666D01*
X89252438Y-105416666D02*
X89300057Y-105464285D01*
X89300057Y-105464285D02*
X89395295Y-105511904D01*
X89395295Y-105511904D02*
X89490533Y-105511904D01*
X89490533Y-105511904D02*
X89633390Y-105464285D01*
X89633390Y-105464285D02*
X90204819Y-104892857D01*
X90204819Y-104892857D02*
X90204819Y-105511904D01*
D12*
%TO.C,R14*%
X90112936Y-78295000D02*
X90567064Y-78295000D01*
X90112936Y-79765000D02*
X90567064Y-79765000D01*
%TO.C,R10*%
X88080936Y-75755000D02*
X88535064Y-75755000D01*
X88080936Y-77225000D02*
X88535064Y-77225000D01*
%TO.C,C33*%
X87265000Y-99238748D02*
X87265000Y-99761252D01*
X88735000Y-99238748D02*
X88735000Y-99761252D01*
%TO.C,R13*%
X88535064Y-80708000D02*
X88080936Y-80708000D01*
X88535064Y-82178000D02*
X88080936Y-82178000D01*
%TO.C,C32*%
X87265000Y-104511252D02*
X87265000Y-103988748D01*
X88735000Y-104511252D02*
X88735000Y-103988748D01*
%TD*%
M02*
