%TF.GenerationSoftware,KiCad,Pcbnew,8.0.0*%
%TF.CreationDate,2024-07-15T16:42:44+02:00*%
%TF.ProjectId,Lucaudio_esp32_V1_revB,4c756361-7564-4696-9f5f-65737033325f,rev?*%
%TF.SameCoordinates,Original*%
%TF.FileFunction,Legend,Bot*%
%TF.FilePolarity,Positive*%
%FSLAX46Y46*%
G04 Gerber Fmt 4.6, Leading zero omitted, Abs format (unit mm)*
G04 Created by KiCad (PCBNEW 8.0.0) date 2024-07-15 16:42:44*
%MOMM*%
%LPD*%
G01*
G04 APERTURE LIST*
%ADD10C,0.100000*%
%ADD11C,0.150000*%
%ADD12C,0.120000*%
G04 APERTURE END LIST*
D10*
X115821330Y-89287290D02*
X115821330Y-90001575D01*
X115821330Y-90001575D02*
X115868949Y-90144432D01*
X115868949Y-90144432D02*
X115964187Y-90239671D01*
X115964187Y-90239671D02*
X116107044Y-90287290D01*
X116107044Y-90287290D02*
X116202282Y-90287290D01*
X115487996Y-89620623D02*
X115107044Y-89620623D01*
X115345139Y-89287290D02*
X115345139Y-90144432D01*
X115345139Y-90144432D02*
X115297520Y-90239671D01*
X115297520Y-90239671D02*
X115202282Y-90287290D01*
X115202282Y-90287290D02*
X115107044Y-90287290D01*
X114345139Y-90287290D02*
X114345139Y-89763480D01*
X114345139Y-89763480D02*
X114392758Y-89668242D01*
X114392758Y-89668242D02*
X114487996Y-89620623D01*
X114487996Y-89620623D02*
X114678472Y-89620623D01*
X114678472Y-89620623D02*
X114773710Y-89668242D01*
X114345139Y-90239671D02*
X114440377Y-90287290D01*
X114440377Y-90287290D02*
X114678472Y-90287290D01*
X114678472Y-90287290D02*
X114773710Y-90239671D01*
X114773710Y-90239671D02*
X114821329Y-90144432D01*
X114821329Y-90144432D02*
X114821329Y-90049194D01*
X114821329Y-90049194D02*
X114773710Y-89953956D01*
X114773710Y-89953956D02*
X114678472Y-89906337D01*
X114678472Y-89906337D02*
X114440377Y-89906337D01*
X114440377Y-89906337D02*
X114345139Y-89858718D01*
X113440377Y-89620623D02*
X113440377Y-90430147D01*
X113440377Y-90430147D02*
X113487996Y-90525385D01*
X113487996Y-90525385D02*
X113535615Y-90573004D01*
X113535615Y-90573004D02*
X113630853Y-90620623D01*
X113630853Y-90620623D02*
X113773710Y-90620623D01*
X113773710Y-90620623D02*
X113868948Y-90573004D01*
X113440377Y-90239671D02*
X113535615Y-90287290D01*
X113535615Y-90287290D02*
X113726091Y-90287290D01*
X113726091Y-90287290D02*
X113821329Y-90239671D01*
X113821329Y-90239671D02*
X113868948Y-90192051D01*
X113868948Y-90192051D02*
X113916567Y-90096813D01*
X113916567Y-90096813D02*
X113916567Y-89811099D01*
X113916567Y-89811099D02*
X113868948Y-89715861D01*
X113868948Y-89715861D02*
X113821329Y-89668242D01*
X113821329Y-89668242D02*
X113726091Y-89620623D01*
X113726091Y-89620623D02*
X113535615Y-89620623D01*
X113535615Y-89620623D02*
X113440377Y-89668242D01*
D11*
X94142857Y-79954819D02*
X94476190Y-79478628D01*
X94714285Y-79954819D02*
X94714285Y-78954819D01*
X94714285Y-78954819D02*
X94333333Y-78954819D01*
X94333333Y-78954819D02*
X94238095Y-79002438D01*
X94238095Y-79002438D02*
X94190476Y-79050057D01*
X94190476Y-79050057D02*
X94142857Y-79145295D01*
X94142857Y-79145295D02*
X94142857Y-79288152D01*
X94142857Y-79288152D02*
X94190476Y-79383390D01*
X94190476Y-79383390D02*
X94238095Y-79431009D01*
X94238095Y-79431009D02*
X94333333Y-79478628D01*
X94333333Y-79478628D02*
X94714285Y-79478628D01*
X93190476Y-79954819D02*
X93761904Y-79954819D01*
X93476190Y-79954819D02*
X93476190Y-78954819D01*
X93476190Y-78954819D02*
X93571428Y-79097676D01*
X93571428Y-79097676D02*
X93666666Y-79192914D01*
X93666666Y-79192914D02*
X93761904Y-79240533D01*
X92333333Y-79288152D02*
X92333333Y-79954819D01*
X92571428Y-78907200D02*
X92809523Y-79621485D01*
X92809523Y-79621485D02*
X92190476Y-79621485D01*
X92392857Y-77454819D02*
X92726190Y-76978628D01*
X92964285Y-77454819D02*
X92964285Y-76454819D01*
X92964285Y-76454819D02*
X92583333Y-76454819D01*
X92583333Y-76454819D02*
X92488095Y-76502438D01*
X92488095Y-76502438D02*
X92440476Y-76550057D01*
X92440476Y-76550057D02*
X92392857Y-76645295D01*
X92392857Y-76645295D02*
X92392857Y-76788152D01*
X92392857Y-76788152D02*
X92440476Y-76883390D01*
X92440476Y-76883390D02*
X92488095Y-76931009D01*
X92488095Y-76931009D02*
X92583333Y-76978628D01*
X92583333Y-76978628D02*
X92964285Y-76978628D01*
X91440476Y-77454819D02*
X92011904Y-77454819D01*
X91726190Y-77454819D02*
X91726190Y-76454819D01*
X91726190Y-76454819D02*
X91821428Y-76597676D01*
X91821428Y-76597676D02*
X91916666Y-76692914D01*
X91916666Y-76692914D02*
X92011904Y-76740533D01*
X90821428Y-76454819D02*
X90726190Y-76454819D01*
X90726190Y-76454819D02*
X90630952Y-76502438D01*
X90630952Y-76502438D02*
X90583333Y-76550057D01*
X90583333Y-76550057D02*
X90535714Y-76645295D01*
X90535714Y-76645295D02*
X90488095Y-76835771D01*
X90488095Y-76835771D02*
X90488095Y-77073866D01*
X90488095Y-77073866D02*
X90535714Y-77264342D01*
X90535714Y-77264342D02*
X90583333Y-77359580D01*
X90583333Y-77359580D02*
X90630952Y-77407200D01*
X90630952Y-77407200D02*
X90726190Y-77454819D01*
X90726190Y-77454819D02*
X90821428Y-77454819D01*
X90821428Y-77454819D02*
X90916666Y-77407200D01*
X90916666Y-77407200D02*
X90964285Y-77359580D01*
X90964285Y-77359580D02*
X91011904Y-77264342D01*
X91011904Y-77264342D02*
X91059523Y-77073866D01*
X91059523Y-77073866D02*
X91059523Y-76835771D01*
X91059523Y-76835771D02*
X91011904Y-76645295D01*
X91011904Y-76645295D02*
X90964285Y-76550057D01*
X90964285Y-76550057D02*
X90916666Y-76502438D01*
X90916666Y-76502438D02*
X90821428Y-76454819D01*
X121926819Y-93646666D02*
X122641104Y-93646666D01*
X122641104Y-93646666D02*
X122783961Y-93599047D01*
X122783961Y-93599047D02*
X122879200Y-93503809D01*
X122879200Y-93503809D02*
X122926819Y-93360952D01*
X122926819Y-93360952D02*
X122926819Y-93265714D01*
X122926819Y-94646666D02*
X122926819Y-94075238D01*
X122926819Y-94360952D02*
X121926819Y-94360952D01*
X121926819Y-94360952D02*
X122069676Y-94265714D01*
X122069676Y-94265714D02*
X122164914Y-94170476D01*
X122164914Y-94170476D02*
X122212533Y-94075238D01*
X90039580Y-98857142D02*
X90087200Y-98809523D01*
X90087200Y-98809523D02*
X90134819Y-98666666D01*
X90134819Y-98666666D02*
X90134819Y-98571428D01*
X90134819Y-98571428D02*
X90087200Y-98428571D01*
X90087200Y-98428571D02*
X89991961Y-98333333D01*
X89991961Y-98333333D02*
X89896723Y-98285714D01*
X89896723Y-98285714D02*
X89706247Y-98238095D01*
X89706247Y-98238095D02*
X89563390Y-98238095D01*
X89563390Y-98238095D02*
X89372914Y-98285714D01*
X89372914Y-98285714D02*
X89277676Y-98333333D01*
X89277676Y-98333333D02*
X89182438Y-98428571D01*
X89182438Y-98428571D02*
X89134819Y-98571428D01*
X89134819Y-98571428D02*
X89134819Y-98666666D01*
X89134819Y-98666666D02*
X89182438Y-98809523D01*
X89182438Y-98809523D02*
X89230057Y-98857142D01*
X89134819Y-99190476D02*
X89134819Y-99809523D01*
X89134819Y-99809523D02*
X89515771Y-99476190D01*
X89515771Y-99476190D02*
X89515771Y-99619047D01*
X89515771Y-99619047D02*
X89563390Y-99714285D01*
X89563390Y-99714285D02*
X89611009Y-99761904D01*
X89611009Y-99761904D02*
X89706247Y-99809523D01*
X89706247Y-99809523D02*
X89944342Y-99809523D01*
X89944342Y-99809523D02*
X90039580Y-99761904D01*
X90039580Y-99761904D02*
X90087200Y-99714285D01*
X90087200Y-99714285D02*
X90134819Y-99619047D01*
X90134819Y-99619047D02*
X90134819Y-99333333D01*
X90134819Y-99333333D02*
X90087200Y-99238095D01*
X90087200Y-99238095D02*
X90039580Y-99190476D01*
X89134819Y-100142857D02*
X89134819Y-100761904D01*
X89134819Y-100761904D02*
X89515771Y-100428571D01*
X89515771Y-100428571D02*
X89515771Y-100571428D01*
X89515771Y-100571428D02*
X89563390Y-100666666D01*
X89563390Y-100666666D02*
X89611009Y-100714285D01*
X89611009Y-100714285D02*
X89706247Y-100761904D01*
X89706247Y-100761904D02*
X89944342Y-100761904D01*
X89944342Y-100761904D02*
X90039580Y-100714285D01*
X90039580Y-100714285D02*
X90087200Y-100666666D01*
X90087200Y-100666666D02*
X90134819Y-100571428D01*
X90134819Y-100571428D02*
X90134819Y-100285714D01*
X90134819Y-100285714D02*
X90087200Y-100190476D01*
X90087200Y-100190476D02*
X90039580Y-100142857D01*
X92392857Y-82704819D02*
X92726190Y-82228628D01*
X92964285Y-82704819D02*
X92964285Y-81704819D01*
X92964285Y-81704819D02*
X92583333Y-81704819D01*
X92583333Y-81704819D02*
X92488095Y-81752438D01*
X92488095Y-81752438D02*
X92440476Y-81800057D01*
X92440476Y-81800057D02*
X92392857Y-81895295D01*
X92392857Y-81895295D02*
X92392857Y-82038152D01*
X92392857Y-82038152D02*
X92440476Y-82133390D01*
X92440476Y-82133390D02*
X92488095Y-82181009D01*
X92488095Y-82181009D02*
X92583333Y-82228628D01*
X92583333Y-82228628D02*
X92964285Y-82228628D01*
X91440476Y-82704819D02*
X92011904Y-82704819D01*
X91726190Y-82704819D02*
X91726190Y-81704819D01*
X91726190Y-81704819D02*
X91821428Y-81847676D01*
X91821428Y-81847676D02*
X91916666Y-81942914D01*
X91916666Y-81942914D02*
X92011904Y-81990533D01*
X91107142Y-81704819D02*
X90488095Y-81704819D01*
X90488095Y-81704819D02*
X90821428Y-82085771D01*
X90821428Y-82085771D02*
X90678571Y-82085771D01*
X90678571Y-82085771D02*
X90583333Y-82133390D01*
X90583333Y-82133390D02*
X90535714Y-82181009D01*
X90535714Y-82181009D02*
X90488095Y-82276247D01*
X90488095Y-82276247D02*
X90488095Y-82514342D01*
X90488095Y-82514342D02*
X90535714Y-82609580D01*
X90535714Y-82609580D02*
X90583333Y-82657200D01*
X90583333Y-82657200D02*
X90678571Y-82704819D01*
X90678571Y-82704819D02*
X90964285Y-82704819D01*
X90964285Y-82704819D02*
X91059523Y-82657200D01*
X91059523Y-82657200D02*
X91107142Y-82609580D01*
X90109580Y-103607142D02*
X90157200Y-103559523D01*
X90157200Y-103559523D02*
X90204819Y-103416666D01*
X90204819Y-103416666D02*
X90204819Y-103321428D01*
X90204819Y-103321428D02*
X90157200Y-103178571D01*
X90157200Y-103178571D02*
X90061961Y-103083333D01*
X90061961Y-103083333D02*
X89966723Y-103035714D01*
X89966723Y-103035714D02*
X89776247Y-102988095D01*
X89776247Y-102988095D02*
X89633390Y-102988095D01*
X89633390Y-102988095D02*
X89442914Y-103035714D01*
X89442914Y-103035714D02*
X89347676Y-103083333D01*
X89347676Y-103083333D02*
X89252438Y-103178571D01*
X89252438Y-103178571D02*
X89204819Y-103321428D01*
X89204819Y-103321428D02*
X89204819Y-103416666D01*
X89204819Y-103416666D02*
X89252438Y-103559523D01*
X89252438Y-103559523D02*
X89300057Y-103607142D01*
X89204819Y-103940476D02*
X89204819Y-104559523D01*
X89204819Y-104559523D02*
X89585771Y-104226190D01*
X89585771Y-104226190D02*
X89585771Y-104369047D01*
X89585771Y-104369047D02*
X89633390Y-104464285D01*
X89633390Y-104464285D02*
X89681009Y-104511904D01*
X89681009Y-104511904D02*
X89776247Y-104559523D01*
X89776247Y-104559523D02*
X90014342Y-104559523D01*
X90014342Y-104559523D02*
X90109580Y-104511904D01*
X90109580Y-104511904D02*
X90157200Y-104464285D01*
X90157200Y-104464285D02*
X90204819Y-104369047D01*
X90204819Y-104369047D02*
X90204819Y-104083333D01*
X90204819Y-104083333D02*
X90157200Y-103988095D01*
X90157200Y-103988095D02*
X90109580Y-103940476D01*
X89300057Y-104940476D02*
X89252438Y-104988095D01*
X89252438Y-104988095D02*
X89204819Y-105083333D01*
X89204819Y-105083333D02*
X89204819Y-105321428D01*
X89204819Y-105321428D02*
X89252438Y-105416666D01*
X89252438Y-105416666D02*
X89300057Y-105464285D01*
X89300057Y-105464285D02*
X89395295Y-105511904D01*
X89395295Y-105511904D02*
X89490533Y-105511904D01*
X89490533Y-105511904D02*
X89633390Y-105464285D01*
X89633390Y-105464285D02*
X90204819Y-104892857D01*
X90204819Y-104892857D02*
X90204819Y-105511904D01*
D12*
%TO.C,R14*%
X90022936Y-78765000D02*
X90477064Y-78765000D01*
X90022936Y-80235000D02*
X90477064Y-80235000D01*
%TO.C,R10*%
X88022936Y-76265000D02*
X88477064Y-76265000D01*
X88022936Y-77735000D02*
X88477064Y-77735000D01*
%TO.C,J1*%
X113732000Y-91380000D02*
X113732000Y-96580000D01*
X113732000Y-91380000D02*
X121472000Y-91380000D01*
X113732000Y-96580000D02*
X118872000Y-96580000D01*
X118872000Y-93980000D02*
X118872000Y-96580000D01*
X121472000Y-91380000D02*
X121472000Y-93980000D01*
X121472000Y-93980000D02*
X118872000Y-93980000D01*
X121472000Y-95250000D02*
X121472000Y-96580000D01*
X121472000Y-96580000D02*
X120142000Y-96580000D01*
%TO.C,C33*%
X87265000Y-99238748D02*
X87265000Y-99761252D01*
X88735000Y-99238748D02*
X88735000Y-99761252D01*
%TO.C,R13*%
X88477064Y-81265000D02*
X88022936Y-81265000D01*
X88477064Y-82735000D02*
X88022936Y-82735000D01*
%TO.C,C32*%
X87265000Y-104511252D02*
X87265000Y-103988748D01*
X88735000Y-104511252D02*
X88735000Y-103988748D01*
%TD*%
M02*
