M48
; DRILL file {KiCad 8.0.0} date 2024-07-15T16:42:46+0200
; FORMAT={-:-/ absolute / inch / decimal}
; #@! TF.CreationDate,2024-07-15T16:42:46+02:00
; #@! TF.GenerationSoftware,Kicad,Pcbnew,8.0.0
; #@! TF.FileFunction,Plated,1,2,PTH
FMAT,2
INCH
; #@! TA.AperFunction,Plated,PTH,ViaDrill
T1C0.0118
; #@! TA.AperFunction,Plated,PTH,ComponentDrill
T2C0.0236
; #@! TA.AperFunction,Plated,PTH,ComponentDrill
T3C0.0335
; #@! TA.AperFunction,Plated,PTH,ComponentDrill
T4C0.0394
; #@! TA.AperFunction,Plated,PTH,ComponentDrill
T5C0.0453
; #@! TA.AperFunction,Plated,PTH,ComponentDrill
T6C0.0591
; #@! TA.AperFunction,Plated,PTH,ComponentDrill
T7C0.0630
; #@! TA.AperFunction,Plated,PTH,ComponentDrill
T8C0.0866
%
G90
G05
T1
X3.3071Y-2.8346
X3.3071Y-4.872
X3.3268Y-3.3366
X3.3268Y-3.6516
X3.3465Y-4.7441
X3.3957Y-4.1535
X3.4055Y-2.8445
X3.4055Y-3.6614
X3.4055Y-3.9075
X3.4055Y-4.0256
X3.4055Y-4.439
X3.4055Y-4.5374
X3.4055Y-4.6358
X3.4449Y-4.2323
X3.4941Y-3.5335
X3.5138Y-3.2874
X3.5138Y-4.7441
X3.5531Y-3.8583
X3.563Y-2.7165
X3.6122Y-4.7441
X3.6417Y-3.5335
X3.6614Y-3.1299
X3.75Y-3.5335
X3.7598Y-2.8543
X3.8091Y-3.2776
X3.8091Y-4.7343
X3.8583Y-3.5728
X3.8583Y-3.6909
X3.878Y-2.8248
X3.8976Y-4.1634
X3.8976Y-4.5571
X3.9075Y-2.6969
X4.1004Y-3.6908
X4.114Y-2.958
X4.1339Y-2.8248
X4.1339Y-4.7244
X4.1544Y-3.8089
X4.1634Y-4.0137
X4.187Y-4.1239
X4.187Y-4.2341
X4.2028Y-3.5038
X4.214Y-3.594
X4.2343Y-4.3995
X4.2343Y-4.4861
X4.3356Y-3.7774
X4.3356Y-3.8798
X4.3366Y-3.8168
X4.3366Y-3.9507
X4.3406Y-3.5235
X4.3445Y-4.2184
X4.3524Y-3.3759
X4.354Y-4.922
X4.359Y-3.227
X4.3701Y-3.1004
X4.3701Y-4.6339
X4.3996Y-3.6514
X4.3996Y-4.0451
X4.4222Y-3.5727
X4.4222Y-3.7144
X4.4222Y-3.805
X4.439Y-4.2577
X4.5846Y-3.1043
X4.6201Y-3.9507
X4.63Y-3.565
X4.656Y-4.584
X4.7083Y-3.9507
X4.7146Y-4.744
X4.7224Y-4.2577
X4.789Y-3.286
X4.7933Y-3.8286
X4.7933Y-3.9507
X4.794Y-3.106
X4.823Y-4.401
X4.8327Y-4.2341
X4.8534Y-3.8602
X4.8583Y-3.9507
X4.8837Y-3.775
X4.9Y-3.496
X4.9114Y-3.9507
X4.982Y-4.916
X5.0217Y-4.1647
X5.0295Y-4.0215
X5.041Y-3.18
X5.043Y-3.2786
X5.0539Y-4.1718
X5.0621Y-3.999
X5.068Y-2.78
X5.0689Y-2.8837
X5.0689Y-3.053
X5.07Y-2.65
X5.0768Y-4.2892
X5.096Y-3.243
X5.1004Y-3.4546
X5.1083Y-3.9113
X5.115Y-3.126
X5.1319Y-4.6436
X5.144Y-3.992
X5.15Y-3.257
X5.156Y-4.064
X5.16Y-3.568
X5.1638Y-3.0691
X5.1694Y-3.1806
X5.2224Y-3.189
X5.3583Y-4.2638
X5.3642Y-4.1772
X5.38Y-2.63
X5.382Y-4.731
X5.391Y-3.957
X5.396Y-3.0197
X5.396Y-3.436
X5.398Y-3.57
X5.457Y-4.433
X5.458Y-3.689
X5.465Y-4.723
X5.519Y-3.181
X5.5433Y-3.5138
X5.561Y-4.0945
X5.569Y-4.279
X5.5886Y-3.6161
X5.602Y-4.585
X5.605Y-4.834
X5.6251Y-4.0945
X5.656Y-4.922
X5.686Y-4.033
X5.73Y-2.636
X5.754Y-4.158
X5.754Y-4.22
X5.7579Y-2.8148
X5.76Y-4.479
X5.77Y-3.677
X5.77Y-4.052
X5.78Y-4.692
X5.82Y-3.432
X5.828Y-3.955
X5.8957Y-3.2105
X5.9445Y-2.9515
X5.996Y-2.942
X6.025Y-2.786
X6.032Y-3.92
X6.0335Y-3.75
X6.034Y-4.394
X6.063Y-3.5236
X6.0728Y-3.0709
X6.0728Y-3.2185
X6.079Y-2.892
X6.08Y-4.79
X6.106Y-2.636
X6.188Y-4.583
X6.2205Y-2.8543
X6.2303Y-3.0906
X6.332Y-2.642
X6.336Y-4.79
X6.378Y-2.992
X6.388Y-2.962
X6.3935Y-2.8621
X6.4272Y-3.2479
X6.4585Y-3.0721
X6.5059Y-3.8583
X6.52Y-4.152
X6.52Y-4.78
T3
X6.3893Y-3.3463
X6.3893Y-3.5432
T4
X3.3219Y-3.7634
X3.3219Y-3.8634
X3.3219Y-3.9634
X3.3219Y-4.0634
X3.3219Y-4.1634
X3.3219Y-4.3063
X3.3219Y-4.4063
X3.3219Y-4.5063
X3.3219Y-4.6063
X3.3268Y-3.0315
X3.3268Y-3.1299
X3.3268Y-3.2283
X3.8976Y-3.0315
X3.8976Y-3.2283
X4.124Y-3.7633
X4.124Y-3.8633
X4.124Y-3.9633
X4.124Y-4.0633
X4.124Y-4.1633
X4.124Y-4.3063
X4.124Y-4.4063
X4.124Y-4.5063
X4.124Y-4.6063
X4.53Y-3.65
X4.53Y-3.75
X4.63Y-3.65
X4.63Y-3.75
X4.73Y-3.65
X4.73Y-3.75
T5
X3.5114Y-4.8524
X3.6114Y-4.8524
X3.7114Y-4.8524
X3.8114Y-4.8524
T7
X6.1417Y-3.7894
X6.1417Y-4.3504
T8
X4.1339Y-2.6969
X4.1339Y-4.8622
X6.4567Y-2.6969
X6.4567Y-4.8622
T2
G00X6.3165Y-2.8219
M15
G01X6.3598Y-2.8219
M16
G05
G00X6.3165Y-3.1621
M15
G01X6.3598Y-3.1621
M16
G05
G00X6.4818Y-3.307
M15
G01X6.5094Y-3.307
M16
G05
G00X6.5094Y-3.5826
M15
G01X6.4818Y-3.5826
M16
G05
G00X6.4878Y-2.8219
M15
G01X6.5193Y-2.8219
M16
G05
G00X6.4878Y-3.1621
M15
G01X6.5193Y-3.1621
M16
G05
T4
G00X6.3484Y-3.9764
M15
G01X6.3484Y-3.9173
M16
G05
G00X6.3484Y-4.5276
M15
G01X6.3484Y-4.4685
M16
G05
T6
G00X3.5965Y-2.9094
M15
G01X3.6476Y-2.9094
M16
G05
G00X3.5965Y-3.3504
M15
G01X3.6476Y-3.3504
M16
G05
M30
