%TF.GenerationSoftware,KiCad,Pcbnew,8.0.0*%
%TF.CreationDate,2024-07-15T16:42:44+02:00*%
%TF.ProjectId,Lucaudio_esp32_V1_revB,4c756361-7564-4696-9f5f-65737033325f,rev?*%
%TF.SameCoordinates,Original*%
%TF.FileFunction,Soldermask,Bot*%
%TF.FilePolarity,Negative*%
%FSLAX46Y46*%
G04 Gerber Fmt 4.6, Leading zero omitted, Abs format (unit mm)*
G04 Created by KiCad (PCBNEW 8.0.0) date 2024-07-15 16:42:44*
%MOMM*%
%LPD*%
G01*
G04 APERTURE LIST*
G04 Aperture macros list*
%AMRoundRect*
0 Rectangle with rounded corners*
0 $1 Rounding radius*
0 $2 $3 $4 $5 $6 $7 $8 $9 X,Y pos of 4 corners*
0 Add a 4 corners polygon primitive as box body*
4,1,4,$2,$3,$4,$5,$6,$7,$8,$9,$2,$3,0*
0 Add four circle primitives for the rounded corners*
1,1,$1+$1,$2,$3*
1,1,$1+$1,$4,$5*
1,1,$1+$1,$6,$7*
1,1,$1+$1,$8,$9*
0 Add four rect primitives between the rounded corners*
20,1,$1+$1,$2,$3,$4,$5,0*
20,1,$1+$1,$4,$5,$6,$7,0*
20,1,$1+$1,$6,$7,$8,$9,0*
20,1,$1+$1,$8,$9,$2,$3,0*%
G04 Aperture macros list end*
%ADD10O,1.900000X1.200000*%
%ADD11C,1.450000*%
%ADD12R,1.700000X1.700000*%
%ADD13O,1.700000X1.700000*%
%ADD14C,2.800000*%
%ADD15R,2.200000X3.200000*%
%ADD16C,3.500000*%
%ADD17R,2.000000X2.000000*%
%ADD18C,2.000000*%
%ADD19R,3.200000X2.000000*%
%ADD20C,0.650000*%
%ADD21O,2.100000X1.000000*%
%ADD22O,1.800000X1.000000*%
%ADD23C,1.900000*%
%ADD24RoundRect,0.250000X0.350000X0.450000X-0.350000X0.450000X-0.350000X-0.450000X0.350000X-0.450000X0*%
%ADD25RoundRect,0.250000X0.475000X-0.337500X0.475000X0.337500X-0.475000X0.337500X-0.475000X-0.337500X0*%
%ADD26RoundRect,0.250000X-0.350000X-0.450000X0.350000X-0.450000X0.350000X0.450000X-0.350000X0.450000X0*%
%ADD27RoundRect,0.250000X-0.475000X0.337500X-0.475000X-0.337500X0.475000X-0.337500X0.475000X0.337500X0*%
G04 APERTURE END LIST*
D10*
%TO.C,J8*%
X164987500Y-90996800D03*
D11*
X162287500Y-89996800D03*
X162287500Y-84996800D03*
D10*
X164987500Y-83996800D03*
%TD*%
D12*
%TO.C,J4*%
X104750000Y-117000000D03*
D13*
X104750000Y-114460000D03*
X104750000Y-111920000D03*
X104750000Y-109380000D03*
%TD*%
D14*
%TO.C,J2*%
X156000000Y-96250000D03*
X156000000Y-110500000D03*
D15*
X161250000Y-114250000D03*
X161250000Y-100250000D03*
%TD*%
D12*
%TO.C,J5*%
X104750000Y-105746800D03*
D13*
X104750000Y-103206800D03*
X104750000Y-100666800D03*
X104750000Y-98126800D03*
X104750000Y-95586800D03*
%TD*%
D16*
%TO.C,REF\u002A\u002A*%
X105000000Y-123500000D03*
%TD*%
%TO.C,REF\u002A\u002A*%
X164000000Y-123500000D03*
%TD*%
D17*
%TO.C,SW3*%
X84500000Y-77000000D03*
D18*
X84500000Y-82000000D03*
X84500000Y-79500000D03*
D19*
X92000000Y-73900000D03*
X92000000Y-85100000D03*
D18*
X99000000Y-82000000D03*
X99000000Y-77000000D03*
%TD*%
D20*
%TO.C,J3*%
X161509200Y-78886800D03*
X161509200Y-73106800D03*
D21*
X160989200Y-80316800D03*
D22*
X165189200Y-80316800D03*
D21*
X160989200Y-71676800D03*
D22*
X165189200Y-71676800D03*
%TD*%
D12*
%TO.C,J7*%
X84375000Y-105750000D03*
D13*
X84375000Y-103210000D03*
X84375000Y-100670000D03*
X84375000Y-98130000D03*
X84375000Y-95590000D03*
%TD*%
D16*
%TO.C,REF\u002A\u002A*%
X105000000Y-68500000D03*
%TD*%
D12*
%TO.C,J6*%
X84375000Y-117000000D03*
D13*
X84375000Y-114460000D03*
X84375000Y-111920000D03*
X84375000Y-109380000D03*
%TD*%
D16*
%TO.C,REF\u002A\u002A*%
X164000000Y-68500000D03*
%TD*%
D23*
%TO.C,OLED1*%
X96810000Y-123250000D03*
X94270000Y-123250000D03*
X91730000Y-123250000D03*
X89190000Y-123250000D03*
%TD*%
D24*
%TO.C,R14*%
X91250000Y-79500000D03*
X89250000Y-79500000D03*
%TD*%
%TO.C,R10*%
X89250000Y-77000000D03*
X87250000Y-77000000D03*
%TD*%
D12*
%TO.C,J1*%
X120142000Y-95250000D03*
D13*
X120142000Y-92710000D03*
X117602000Y-95250000D03*
X117602000Y-92710000D03*
X115062000Y-95250000D03*
X115062000Y-92710000D03*
%TD*%
D25*
%TO.C,C33*%
X88000000Y-100537500D03*
X88000000Y-98462500D03*
%TD*%
D26*
%TO.C,R13*%
X87250000Y-82000000D03*
X89250000Y-82000000D03*
%TD*%
D27*
%TO.C,C32*%
X88000000Y-103212500D03*
X88000000Y-105287500D03*
%TD*%
M02*
