%TF.GenerationSoftware,KiCad,Pcbnew,8.0.0*%
%TF.CreationDate,2024-07-15T16:42:44+02:00*%
%TF.ProjectId,Lucaudio_esp32_V1_revB,4c756361-7564-4696-9f5f-65737033325f,rev?*%
%TF.SameCoordinates,Original*%
%TF.FileFunction,Soldermask,Top*%
%TF.FilePolarity,Negative*%
%FSLAX46Y46*%
G04 Gerber Fmt 4.6, Leading zero omitted, Abs format (unit mm)*
G04 Created by KiCad (PCBNEW 8.0.0) date 2024-07-15 16:42:44*
%MOMM*%
%LPD*%
G01*
G04 APERTURE LIST*
G04 Aperture macros list*
%AMRoundRect*
0 Rectangle with rounded corners*
0 $1 Rounding radius*
0 $2 $3 $4 $5 $6 $7 $8 $9 X,Y pos of 4 corners*
0 Add a 4 corners polygon primitive as box body*
4,1,4,$2,$3,$4,$5,$6,$7,$8,$9,$2,$3,0*
0 Add four circle primitives for the rounded corners*
1,1,$1+$1,$2,$3*
1,1,$1+$1,$4,$5*
1,1,$1+$1,$6,$7*
1,1,$1+$1,$8,$9*
0 Add four rect primitives between the rounded corners*
20,1,$1+$1,$2,$3,$4,$5,0*
20,1,$1+$1,$4,$5,$6,$7,0*
20,1,$1+$1,$6,$7,$8,$9,0*
20,1,$1+$1,$8,$9,$2,$3,0*%
G04 Aperture macros list end*
%ADD10RoundRect,0.250000X-0.337500X-0.475000X0.337500X-0.475000X0.337500X0.475000X-0.337500X0.475000X0*%
%ADD11R,1.862500X0.400000*%
%ADD12O,1.900000X1.200000*%
%ADD13C,1.450000*%
%ADD14RoundRect,0.250000X-0.250000X-0.475000X0.250000X-0.475000X0.250000X0.475000X-0.250000X0.475000X0*%
%ADD15RoundRect,0.250000X0.337500X0.475000X-0.337500X0.475000X-0.337500X-0.475000X0.337500X-0.475000X0*%
%ADD16R,1.700000X1.700000*%
%ADD17O,1.700000X1.700000*%
%ADD18C,2.800000*%
%ADD19R,2.200000X3.200000*%
%ADD20RoundRect,0.250000X-0.475000X0.250000X-0.475000X-0.250000X0.475000X-0.250000X0.475000X0.250000X0*%
%ADD21R,1.500000X0.900000*%
%ADD22R,0.900000X0.900000*%
%ADD23RoundRect,0.250000X-0.250000X-0.250000X0.250000X-0.250000X0.250000X0.250000X-0.250000X0.250000X0*%
%ADD24RoundRect,0.250000X0.475000X-0.250000X0.475000X0.250000X-0.475000X0.250000X-0.475000X-0.250000X0*%
%ADD25RoundRect,0.150000X-0.512500X-0.150000X0.512500X-0.150000X0.512500X0.150000X-0.512500X0.150000X0*%
%ADD26RoundRect,0.250000X-0.450000X0.350000X-0.450000X-0.350000X0.450000X-0.350000X0.450000X0.350000X0*%
%ADD27RoundRect,0.375000X0.375000X-0.625000X0.375000X0.625000X-0.375000X0.625000X-0.375000X-0.625000X0*%
%ADD28RoundRect,0.500000X1.400000X-0.500000X1.400000X0.500000X-1.400000X0.500000X-1.400000X-0.500000X0*%
%ADD29RoundRect,0.250000X-0.550000X1.250000X-0.550000X-1.250000X0.550000X-1.250000X0.550000X1.250000X0*%
%ADD30C,3.500000*%
%ADD31RoundRect,0.250000X-0.350000X-0.450000X0.350000X-0.450000X0.350000X0.450000X-0.350000X0.450000X0*%
%ADD32RoundRect,0.250000X-0.400000X-0.625000X0.400000X-0.625000X0.400000X0.625000X-0.400000X0.625000X0*%
%ADD33RoundRect,0.250000X0.325000X0.450000X-0.325000X0.450000X-0.325000X-0.450000X0.325000X-0.450000X0*%
%ADD34RoundRect,0.250000X-0.450000X0.325000X-0.450000X-0.325000X0.450000X-0.325000X0.450000X0.325000X0*%
%ADD35R,2.000000X2.000000*%
%ADD36C,2.000000*%
%ADD37R,3.200000X2.000000*%
%ADD38C,0.650000*%
%ADD39R,1.495000X0.600000*%
%ADD40R,1.495000X0.300000*%
%ADD41R,1.240000X0.600000*%
%ADD42O,2.100000X1.000000*%
%ADD43O,1.800000X1.000000*%
%ADD44RoundRect,0.150000X-0.150000X0.675000X-0.150000X-0.675000X0.150000X-0.675000X0.150000X0.675000X0*%
%ADD45R,1.600000X1.400000*%
%ADD46RoundRect,0.250000X0.350000X0.450000X-0.350000X0.450000X-0.350000X-0.450000X0.350000X-0.450000X0*%
%ADD47RoundRect,0.250000X0.250000X0.475000X-0.250000X0.475000X-0.250000X-0.475000X0.250000X-0.475000X0*%
%ADD48RoundRect,0.100000X0.637500X0.100000X-0.637500X0.100000X-0.637500X-0.100000X0.637500X-0.100000X0*%
%ADD49C,1.900000*%
G04 APERTURE END LIST*
D10*
%TO.C,C29*%
X148085900Y-109169200D03*
X150160900Y-109169200D03*
%TD*%
D11*
%TO.C,J8*%
X162031250Y-88796800D03*
X162031250Y-88146800D03*
X162031250Y-87496800D03*
X162031250Y-86846800D03*
X162031250Y-86196800D03*
D12*
X164987500Y-90996800D03*
D13*
X162287500Y-89996800D03*
X162287500Y-84996800D03*
D12*
X164987500Y-83996800D03*
%TD*%
D14*
%TO.C,C15*%
X138927800Y-86715600D03*
X140827800Y-86715600D03*
%TD*%
D15*
%TO.C,C7*%
X134336700Y-108204000D03*
X132261700Y-108204000D03*
%TD*%
D16*
%TO.C,J4*%
X104750000Y-117000000D03*
D17*
X104750000Y-114460000D03*
X104750000Y-111920000D03*
X104750000Y-109380000D03*
%TD*%
D18*
%TO.C,J2*%
X156000000Y-96250000D03*
X156000000Y-110500000D03*
D19*
X161250000Y-114250000D03*
X161250000Y-100250000D03*
%TD*%
D20*
%TO.C,C10*%
X137998200Y-95530500D03*
X137998200Y-97430500D03*
%TD*%
D14*
%TO.C,C28*%
X150230800Y-88265000D03*
X152130800Y-88265000D03*
%TD*%
D16*
%TO.C,J5*%
X104750000Y-105746800D03*
D17*
X104750000Y-103206800D03*
X104750000Y-100666800D03*
X104750000Y-98126800D03*
X104750000Y-95586800D03*
%TD*%
D21*
%TO.C,U1*%
X108750400Y-78867000D03*
X108750400Y-80137000D03*
X108750400Y-81407000D03*
X108750400Y-82677000D03*
X108750400Y-83947000D03*
X108750400Y-85217000D03*
X108750400Y-86487000D03*
X108750400Y-87757000D03*
X108750400Y-89027000D03*
X108750400Y-90297000D03*
X108750400Y-91567000D03*
X108750400Y-92837000D03*
X108750400Y-94107000D03*
X108750400Y-95377000D03*
X108750400Y-96647000D03*
X108750400Y-97917000D03*
X108750400Y-99187000D03*
X108750400Y-100457000D03*
X108750400Y-101727000D03*
X126250400Y-101727000D03*
X126250400Y-100457000D03*
X126250400Y-99187000D03*
X126250400Y-97917000D03*
X126250400Y-96647000D03*
X126250400Y-95377000D03*
X126250400Y-94107000D03*
X126250400Y-92837000D03*
X126250400Y-91567000D03*
X126250400Y-90297000D03*
X126250400Y-89027000D03*
X126250400Y-87757000D03*
X126250400Y-86487000D03*
X126250400Y-85217000D03*
X126250400Y-83947000D03*
X126250400Y-82677000D03*
X126250400Y-81407000D03*
X126250400Y-80137000D03*
X126250400Y-78867000D03*
D22*
X114595400Y-85262000D03*
X114600400Y-86662000D03*
X114600400Y-88062000D03*
X116000400Y-85262000D03*
X116000400Y-86662000D03*
X116000400Y-88062000D03*
X117400400Y-85262000D03*
X117400400Y-86662000D03*
X117400400Y-88062000D03*
%TD*%
D23*
%TO.C,D1*%
X140304200Y-93432500D03*
X142804200Y-93432500D03*
%TD*%
D24*
%TO.C,C31*%
X156299200Y-76948800D03*
X156299200Y-75048800D03*
%TD*%
D25*
%TO.C,U5*%
X140416700Y-121833600D03*
X140416700Y-122783600D03*
X140416700Y-123733600D03*
X142691700Y-123733600D03*
X142691700Y-121833600D03*
%TD*%
D26*
%TO.C,R9*%
X156269500Y-71279700D03*
X156269500Y-73279700D03*
%TD*%
D15*
%TO.C,C2*%
X106295100Y-77724000D03*
X104220100Y-77724000D03*
%TD*%
D27*
%TO.C,U6*%
X143216600Y-89179800D03*
X145516600Y-89179800D03*
D28*
X145516600Y-82879800D03*
D27*
X147816600Y-89179800D03*
%TD*%
D14*
%TO.C,C23*%
X144896800Y-121700000D03*
X146796800Y-121700000D03*
%TD*%
D15*
%TO.C,C26*%
X150160900Y-102412800D03*
X148085900Y-102412800D03*
%TD*%
D29*
%TO.C,C6*%
X133273800Y-92643600D03*
X133273800Y-97043600D03*
%TD*%
D14*
%TO.C,C19*%
X144719000Y-95275400D03*
X146619000Y-95275400D03*
%TD*%
D30*
%TO.C,REF\u002A\u002A*%
X105000000Y-123500000D03*
%TD*%
D14*
%TO.C,C4*%
X124000000Y-108146800D03*
X125900000Y-108146800D03*
%TD*%
D31*
%TO.C,R12*%
X104257600Y-84480400D03*
X106257600Y-84480400D03*
%TD*%
D32*
%TO.C,R8*%
X147573400Y-104597200D03*
X150673400Y-104597200D03*
%TD*%
D15*
%TO.C,C17*%
X142515500Y-101777800D03*
X140440500Y-101777800D03*
%TD*%
%TO.C,C25*%
X150160900Y-111226600D03*
X148085900Y-111226600D03*
%TD*%
D33*
%TO.C,D4*%
X157375000Y-91846800D03*
X155325000Y-91846800D03*
%TD*%
D29*
%TO.C,C9*%
X133248400Y-83728200D03*
X133248400Y-88128200D03*
%TD*%
D34*
%TO.C,LED2*%
X94750000Y-68725000D03*
X94750000Y-70775000D03*
%TD*%
D14*
%TO.C,C3*%
X113800000Y-108146800D03*
X115700000Y-108146800D03*
%TD*%
%TO.C,C24*%
X144896800Y-123800000D03*
X146796800Y-123800000D03*
%TD*%
D30*
%TO.C,REF\u002A\u002A*%
X164000000Y-123500000D03*
%TD*%
D14*
%TO.C,C27*%
X150230800Y-84175600D03*
X152130800Y-84175600D03*
%TD*%
D35*
%TO.C,SW3*%
X84500000Y-77000000D03*
D36*
X84500000Y-82000000D03*
X84500000Y-79500000D03*
D37*
X92000000Y-73900000D03*
X92000000Y-85100000D03*
D36*
X99000000Y-82000000D03*
X99000000Y-77000000D03*
%TD*%
D38*
%TO.C,J3*%
X161509200Y-78886800D03*
X161509200Y-73106800D03*
D39*
X160261700Y-79196800D03*
X160261700Y-78396800D03*
D40*
X160261700Y-77246800D03*
X160261700Y-76246800D03*
X160261700Y-75746800D03*
X160261700Y-74746800D03*
D39*
X160261700Y-73596800D03*
X160261700Y-72796800D03*
D41*
X160389200Y-72796800D03*
X160389200Y-73596800D03*
D40*
X160261700Y-74246800D03*
X160261700Y-75246800D03*
X160261700Y-76746800D03*
X160261700Y-77746800D03*
D41*
X160389200Y-78396800D03*
X160389200Y-79196800D03*
D42*
X160989200Y-80316800D03*
D43*
X165189200Y-80316800D03*
D42*
X160989200Y-71676800D03*
D43*
X165189200Y-71676800D03*
%TD*%
D16*
%TO.C,J7*%
X84375000Y-105750000D03*
D17*
X84375000Y-103210000D03*
X84375000Y-100670000D03*
X84375000Y-98130000D03*
X84375000Y-95590000D03*
%TD*%
D26*
%TO.C,R5*%
X86500000Y-68750000D03*
X86500000Y-70750000D03*
%TD*%
D31*
%TO.C,R2*%
X132299200Y-106222800D03*
X134299200Y-106222800D03*
%TD*%
D23*
%TO.C,D3*%
X140304200Y-119735600D03*
X142804200Y-119735600D03*
%TD*%
D44*
%TO.C,U8*%
X152273000Y-73371800D03*
X151003000Y-73371800D03*
X149733000Y-73371800D03*
X148463000Y-73371800D03*
X148463000Y-78621800D03*
X149733000Y-78621800D03*
X151003000Y-78621800D03*
X152273000Y-78621800D03*
%TD*%
D45*
%TO.C,SW1*%
X118750000Y-114996800D03*
X110750000Y-114996800D03*
X118750000Y-110496800D03*
X110750000Y-110496800D03*
%TD*%
D34*
%TO.C,LED1*%
X88750000Y-68725000D03*
X88750000Y-70775000D03*
%TD*%
D20*
%TO.C,C11*%
X138023600Y-115509000D03*
X138023600Y-117409000D03*
%TD*%
D30*
%TO.C,REF\u002A\u002A*%
X105000000Y-68500000D03*
%TD*%
D26*
%TO.C,R6*%
X97000000Y-68750000D03*
X97000000Y-70750000D03*
%TD*%
D29*
%TO.C,C5*%
X133299200Y-119550000D03*
X133299200Y-123950000D03*
%TD*%
D15*
%TO.C,C18*%
X142540900Y-111150400D03*
X140465900Y-111150400D03*
%TD*%
D14*
%TO.C,C21*%
X144896800Y-115392200D03*
X146796800Y-115392200D03*
%TD*%
D31*
%TO.C,R1*%
X132299200Y-102362000D03*
X134299200Y-102362000D03*
%TD*%
D29*
%TO.C,C8*%
X133299200Y-111363400D03*
X133299200Y-115763400D03*
%TD*%
D32*
%TO.C,R7*%
X147573400Y-106984800D03*
X150673400Y-106984800D03*
%TD*%
D31*
%TO.C,R4*%
X132299200Y-104292400D03*
X134299200Y-104292400D03*
%TD*%
D14*
%TO.C,C14*%
X138927800Y-84607400D03*
X140827800Y-84607400D03*
%TD*%
D25*
%TO.C,U3*%
X140416700Y-95530500D03*
X140416700Y-96480500D03*
X140416700Y-97430500D03*
X142691700Y-97430500D03*
X142691700Y-95530500D03*
%TD*%
D16*
%TO.C,J6*%
X84375000Y-117000000D03*
D17*
X84375000Y-114460000D03*
X84375000Y-111920000D03*
X84375000Y-109380000D03*
%TD*%
D14*
%TO.C,C30*%
X150230800Y-86207600D03*
X152130800Y-86207600D03*
%TD*%
D15*
%TO.C,C1*%
X106295100Y-80975200D03*
X104220100Y-80975200D03*
%TD*%
D46*
%TO.C,R11*%
X158000000Y-80500000D03*
X156000000Y-80500000D03*
%TD*%
D45*
%TO.C,SW2*%
X128950000Y-114996800D03*
X120950000Y-114996800D03*
X128950000Y-110496800D03*
X120950000Y-110496800D03*
%TD*%
D20*
%TO.C,C12*%
X138023600Y-121833600D03*
X138023600Y-123733600D03*
%TD*%
D31*
%TO.C,R3*%
X132299200Y-100406200D03*
X134299200Y-100406200D03*
%TD*%
D15*
%TO.C,C16*%
X142540900Y-99593400D03*
X140465900Y-99593400D03*
%TD*%
D14*
%TO.C,C20*%
X144719000Y-97300000D03*
X146619000Y-97300000D03*
%TD*%
%TO.C,C22*%
X144896800Y-117500400D03*
X146796800Y-117500400D03*
%TD*%
D47*
%TO.C,C13*%
X146365000Y-78816200D03*
X144465000Y-78816200D03*
%TD*%
D23*
%TO.C,D2*%
X140304200Y-113411000D03*
X142804200Y-113411000D03*
%TD*%
D48*
%TO.C,U4*%
X144381600Y-109325600D03*
X144381600Y-108675600D03*
X144381600Y-108025600D03*
X144381600Y-107375600D03*
X144381600Y-106725600D03*
X144381600Y-106075600D03*
X144381600Y-105425600D03*
X144381600Y-104775600D03*
X144381600Y-104125600D03*
X144381600Y-103475600D03*
X138656600Y-103475600D03*
X138656600Y-104125600D03*
X138656600Y-104775600D03*
X138656600Y-105425600D03*
X138656600Y-106075600D03*
X138656600Y-106725600D03*
X138656600Y-107375600D03*
X138656600Y-108025600D03*
X138656600Y-108675600D03*
X138656600Y-109325600D03*
%TD*%
D46*
%TO.C,R15*%
X153250000Y-91846800D03*
X151250000Y-91846800D03*
%TD*%
D30*
%TO.C,REF\u002A\u002A*%
X164000000Y-68500000D03*
%TD*%
D49*
%TO.C,OLED1*%
X96810000Y-123250000D03*
X94270000Y-123250000D03*
X91730000Y-123250000D03*
X89190000Y-123250000D03*
%TD*%
D25*
%TO.C,U2*%
X140416700Y-115509000D03*
X140416700Y-116459000D03*
X140416700Y-117409000D03*
X142691700Y-117409000D03*
X142691700Y-115509000D03*
%TD*%
D16*
%TO.C,J1*%
X120142000Y-95250000D03*
D17*
X120142000Y-92710000D03*
X117602000Y-95250000D03*
X117602000Y-92710000D03*
X115062000Y-95250000D03*
X115062000Y-92710000D03*
%TD*%
M02*
